<?xml version="1.0" encoding="utf-8"?>
<!-- Generator: Adobe Illustrator 19.0.0, SVG Export Plug-In . SVG Version: 6.00 Build 0)  -->
<svg version="1.1" id="Livello_1" xmlns="http://www.w3.org/2000/svg" xmlns:xlink="http://www.w3.org/1999/xlink" x="0px" y="0px"
	 viewBox="0 0 2560 1440" style="enable-background:new 0 0 2560 1440;" xml:space="preserve">
<style type="text/css">
	.st0{fill:url(#XMLID_17_);}
	.st1{fill:#FFFFFF;}
</style>
<linearGradient id="XMLID_17_" gradientUnits="userSpaceOnUse" x1="60.4799" y1="1596.7538" x2="2523.4387" y2="-175.3768">
	<stop  offset="0" style="stop-color:#EA2749"/>
	<stop  offset="0.4258" style="stop-color:#EE4B41"/>
	<stop  offset="0.7773" style="stop-color:#F0623C"/>
	<stop  offset="1" style="stop-color:#F16A3A"/>
</linearGradient>
<path id="XMLID_585_" class="st0" d="M2558.863,1477.266H8.944c-25.832,0-46.772-20.941-46.772-46.772V2.476
	c0-25.832,20.941-46.772,46.772-46.772h2549.919c25.832,0,46.772,20.941,46.772,46.772v1428.018
	C2605.635,1456.325,2584.695,1477.266,2558.863,1477.266z"/>
<g id="XMLID_366_">
	<g id="XMLID_393_">
		<path id="XMLID_493_" class="st1" d="M1096.287,694.604c-10.857,0-19.681,8.823-19.681,19.662
			c0,10.848,8.823,19.671,19.681,19.671s19.656-8.823,19.656-19.671C1115.943,703.427,1107.144,694.604,1096.287,694.604z"/>
		<path id="XMLID_492_" class="st1" d="M838.298,714.266c0-10.839-8.823-19.662-19.657-19.662c-10.837,0-19.656,8.823-19.656,19.662
			c0,10.848,8.819,19.671,19.656,19.671C829.474,733.937,838.298,725.114,838.298,714.266z"/>
		<path id="XMLID_491_" class="st1" d="M540.996,733.937c10.852,0,19.681-8.823,19.681-19.671c0-10.839-8.828-19.662-19.681-19.662
			c-10.839,0-19.662,8.823-19.662,19.662C521.334,725.114,530.157,733.937,540.996,733.937z"/>
		<path id="XMLID_490_" class="st1" d="M884.582,714.266c0-10.839-8.823-19.662-19.681-19.662c-10.829,0-19.652,8.823-19.652,19.662
			c0,10.848,8.823,19.671,19.652,19.671C875.759,733.937,884.582,725.114,884.582,714.266z"/>
		<path id="XMLID_489_" class="st1" d="M796.806,859.049c7.655,7.687,20.14,7.687,27.798,0c3.724-3.696,5.758-8.632,5.758-13.884
			c0-5.262-2.034-10.198-5.758-13.922c-3.709-3.706-8.642-5.758-13.903-5.758c-5.233,0-10.19,2.052-13.895,5.758
			c-3.723,3.724-5.782,8.66-5.782,13.922C791.025,850.417,793.083,855.353,796.806,859.049z"/>
		<path id="XMLID_488_" class="st1" d="M679.821,919.037c10.848,0,19.667-8.842,19.667-19.671c0-10.848-8.819-19.662-19.667-19.662
			s-19.671,8.814-19.671,19.662C660.149,910.195,668.973,919.037,679.821,919.037z"/>
		<path id="XMLID_487_" class="st1" d="M548.931,864.817c5.252,0,10.213-2.034,13.922-5.768c3.724-3.696,5.753-8.632,5.753-13.884
			c0-5.262-2.029-10.198-5.753-13.922c-3.709-3.706-8.67-5.758-13.922-5.758c-5.238,0-10.194,2.052-13.875,5.758
			c-3.729,3.724-5.787,8.66-5.787,13.922c0,5.252,2.057,10.188,5.767,13.884C538.737,862.783,543.693,864.817,548.931,864.817z"/>
		<path id="XMLID_486_" class="st1" d="M514.406,714.266c0-10.839-8.819-19.662-19.676-19.662c-10.838,0-19.676,8.823-19.676,19.662
			c0,10.848,8.838,19.671,19.676,19.671C505.587,733.937,514.406,725.114,514.406,714.266z"/>
		<path id="XMLID_485_" class="st1" d="M562.853,569.482c-7.677-7.668-20.144-7.668-27.817,0c-3.709,3.715-5.767,8.642-5.767,13.903
			s2.057,10.188,5.767,13.914c3.701,3.714,8.657,5.767,13.895,5.767c5.252,0,10.213-2.053,13.922-5.767
			c3.724-3.725,5.753-8.652,5.753-13.914S566.577,573.197,562.853,569.482z"/>
		<path id="XMLID_484_" class="st1" d="M679.821,509.532c-10.848,0-19.671,8.795-19.671,19.652c0,10.838,8.823,19.652,19.671,19.652
			s19.667-8.814,19.667-19.652C699.487,518.327,690.669,509.532,679.821,509.532z"/>
		<path id="XMLID_483_" class="st1" d="M810.701,603.066c5.261,0,10.194-2.053,13.903-5.767c3.724-3.725,5.758-8.652,5.758-13.914
			s-2.034-10.188-5.758-13.903c-7.658-7.668-20.143-7.668-27.798,0c-3.723,3.715-5.782,8.642-5.782,13.903
			s2.059,10.188,5.782,13.914C800.511,601.013,805.468,603.066,810.701,603.066z"/>
		<path id="XMLID_482_" class="st1" d="M911.191,694.604c-10.833,0-19.662,8.823-19.662,19.662c0,10.848,8.828,19.671,19.662,19.671
			c10.857,0,19.676-8.823,19.676-19.671C930.867,703.427,922.048,694.604,911.191,694.604z"/>
		<path id="XMLID_481_" class="st1" d="M890.527,811.887c4.931,1.795,10.27,1.575,15.02-0.659c4.751-2.225,8.38-6.168,10.175-11.106
			c0.784-2.158,1.189-4.421,1.189-6.722c0-8.241-5.2-15.651-12.934-18.468c-4.957-1.795-10.29-1.575-15.041,0.66
			c-4.775,2.216-8.38,6.14-10.179,11.077c-0.802,2.178-1.184,4.45-1.184,6.732C877.573,801.631,882.768,809.07,890.527,811.887z"/>
		<path id="XMLID_480_" class="st1" d="M858.781,882.588c5.214-0.468,9.969-2.921,13.35-6.952c2.965-3.551,4.597-8.02,4.597-12.633
			c0-5.834-2.574-11.345-7.028-15.088c-4.006-3.361-9.13-4.975-14.348-4.526c-5.253,0.458-9.969,2.941-13.35,6.962
			c-2.979,3.532-4.612,8.021-4.612,12.633c0,5.845,2.559,11.317,7.028,15.069C848.429,881.433,853.548,883.036,858.781,882.588z"/>
		<path id="XMLID_479_" class="st1" d="M812.534,904.8c-5.414-9.387-17.461-12.615-26.861-7.191
			c-6.064,3.505-9.836,10.056-9.836,17.036c0,3.447,0.911,6.856,2.64,9.836c2.621,4.545,6.871,7.792,11.946,9.157
			c5.076,1.346,10.375,0.669,14.93-1.976c6.055-3.495,9.817-10.027,9.817-17.036C815.17,911.198,814.267,907.798,812.534,904.8z"/>
		<path id="XMLID_478_" class="st1" d="M723.413,961.492c9.429-1.671,16.252-9.807,16.252-19.356c0-1.117-0.1-2.291-0.296-3.419
			c-1.876-10.675-12.109-17.847-22.784-15.956c-9.406,1.671-16.252,9.798-16.252,19.337c0,1.156,0.095,2.291,0.3,3.447
			C702.509,956.221,712.736,963.364,723.413,961.492z"/>
		<path id="XMLID_477_" class="st1" d="M636.224,961.492c5.171,0.907,10.389-0.257,14.701-3.266
			c4.311-2.998,7.19-7.505,8.097-12.681c0.201-1.156,0.282-2.291,0.282-3.447c0-9.539-6.824-17.666-16.239-19.337
			c-5.171-0.907-10.39,0.249-14.701,3.247c-4.312,3.017-7.167,7.535-8.093,12.71c-0.181,1.127-0.286,2.302-0.286,3.419
			C619.986,951.685,626.794,959.821,636.224,961.492z"/>
		<path id="XMLID_476_" class="st1" d="M569.232,933.637c5.08-1.365,9.325-4.612,11.946-9.157c1.729-2.979,2.636-6.388,2.636-9.836
			c0-6.981-3.767-13.531-9.826-17.036c-9.406-5.423-21.476-2.196-26.891,7.191c-1.714,2.998-2.64,6.398-2.64,9.825
			c0,7.009,3.786,13.542,9.85,17.036C558.862,934.306,564.152,934.984,569.232,933.637z"/>
		<path id="XMLID_475_" class="st1" d="M515.236,878.052c4.445-3.753,7.033-9.224,7.033-15.069c0-4.611-1.657-9.1-4.618-12.633
			c-3.385-4.02-8.121-6.503-13.354-6.962c-5.238-0.449-10.332,1.165-14.342,4.526c-4.489,3.773-7.029,9.254-7.029,15.088
			c0,4.612,1.634,9.081,4.594,12.633C494.487,883.953,506.915,885.014,515.236,878.052z"/>
		<path id="XMLID_474_" class="st1" d="M482.077,793.399c0-2.282-0.401-4.554-1.184-6.732c-1.795-4.937-5.4-8.861-10.151-11.077
			c-4.774-2.234-10.132-2.455-15.068-0.66c-7.735,2.817-12.93,10.227-12.93,18.468c0,2.302,0.4,4.565,1.194,6.722
			c1.786,4.938,5.395,8.881,10.169,11.106c4.756,2.234,10.088,2.455,15.021,0.659C476.888,809.07,482.077,801.631,482.077,793.399z"
			/>
		<path id="XMLID_473_" class="st1" d="M448.445,694.604c-10.814,0-19.662,8.823-19.662,19.662c0,10.848,8.847,19.671,19.662,19.671
			c10.857,0,19.681-8.823,19.681-19.671C468.126,703.427,459.303,694.604,448.445,694.604z"/>
		<path id="XMLID_472_" class="st1" d="M480.893,641.874c0.783-2.178,1.184-4.45,1.184-6.732c0-8.232-5.19-15.661-12.949-18.488
			c-4.933-1.786-10.265-1.547-15.021,0.669c-4.775,2.216-8.384,6.159-10.169,11.096c-0.793,2.178-1.194,4.431-1.194,6.724
			c0,8.222,5.195,15.66,12.949,18.477C465.891,657.324,477.188,652.043,480.893,641.874z"/>
		<path id="XMLID_471_" class="st1" d="M517.652,578.19c2.96-3.552,4.618-8.021,4.618-12.634c0-5.844-2.589-11.316-7.033-15.087
			c-8.322-6.962-20.75-5.883-27.716,2.444c-2.96,3.524-4.594,8.012-4.594,12.624c0,5.844,2.54,11.335,7.029,15.068
			c4.011,3.39,9.104,4.995,14.342,4.527C509.531,584.674,514.267,582.211,517.652,578.19z"/>
		<path id="XMLID_470_" class="st1" d="M547.097,523.722c2.645,4.555,6.89,7.821,11.961,9.168c5.076,1.375,10.357,0.668,14.93-1.958
			c6.059-3.504,9.826-10.026,9.826-17.054c0-3.419-0.907-6.828-2.636-9.807c-5.423-9.387-17.484-12.604-26.871-7.19
			c-6.064,3.504-9.85,10.026-9.85,17.035C544.456,517.343,545.383,520.743,547.097,523.722z"/>
		<path id="XMLID_469_" class="st1" d="M650.925,470.314c-4.312-2.999-9.53-4.173-14.682-3.267
			c-9.449,1.672-16.258,9.807-16.258,19.356c0,1.146,0.105,2.302,0.286,3.419c0.926,5.185,3.781,9.693,8.093,12.692
			c4.311,3.027,9.53,4.192,14.701,3.266c9.415-1.652,16.239-9.788,16.239-19.337c0-1.146-0.081-2.291-0.282-3.438
			C658.115,477.829,655.236,473.332,650.925,470.314z"/>
		<path id="XMLID_468_" class="st1" d="M723.413,467.048c-5.157-0.906-10.395,0.268-14.706,3.267
			c-4.288,3.017-7.167,7.515-8.074,12.691c-0.205,1.146-0.3,2.291-0.3,3.438c0,9.549,6.847,17.685,16.252,19.337
			c5.175,0.926,10.389-0.239,14.705-3.266c4.288-2.998,7.172-7.506,8.079-12.692c0.196-1.117,0.296-2.272,0.296-3.419
			C739.665,476.855,732.841,468.719,723.413,467.048z"/>
		<path id="XMLID_467_" class="st1" d="M778.477,504.07c-1.729,2.998-2.64,6.388-2.64,9.807c0,7.028,3.772,13.55,9.836,17.054
			c4.545,2.626,9.845,3.333,14.925,1.958c5.07-1.346,9.32-4.612,11.936-9.168c1.733-2.979,2.636-6.379,2.636-9.807
			c0-7.009-3.762-13.531-9.817-17.035C795.938,491.466,783.897,494.683,778.477,504.07z"/>
		<path id="XMLID_466_" class="st1" d="M855.353,585.133c5.218,0.468,10.341-1.137,14.348-4.527
			c4.454-3.734,7.028-9.224,7.028-15.068c0-4.612-1.633-9.1-4.597-12.624c-3.381-4.03-8.136-6.512-13.35-6.951
			c-5.233-0.469-10.352,1.145-14.362,4.507c-4.469,3.772-7.028,9.243-7.028,15.087c0,4.612,1.652,9.081,4.612,12.634
			C845.383,582.211,850.1,584.674,855.353,585.133z"/>
		<path id="XMLID_465_" class="st1" d="M877.573,635.142c0,2.282,0.382,4.554,1.184,6.732c3.705,10.17,15.03,15.45,25.22,11.746
			c7.734-2.817,12.934-10.256,12.934-18.477c0-2.292-0.406-4.546-1.189-6.724c-1.795-4.937-5.423-8.88-10.175-11.096
			c-4.75-2.216-10.088-2.455-15.02-0.669C882.768,619.481,877.573,626.91,877.573,635.142z"/>
		<path id="XMLID_464_" class="st1" d="M957.452,694.604c-10.834,0-19.653,8.823-19.653,19.662c0,10.848,8.819,19.671,19.653,19.671
			c10.857,0,19.68-8.823,19.68-19.671C977.132,703.427,968.31,694.604,957.452,694.604z"/>
		<path id="XMLID_463_" class="st1" d="M971.412,772.268c0.262-1.271,0.382-2.551,0.382-3.849c0-9.339-6.647-17.438-15.832-19.271
			c-10.638-2.12-21.009,4.812-23.119,15.441c-0.243,1.269-0.391,2.578-0.391,3.848c0,9.349,6.674,17.465,15.836,19.279
			C958.922,789.828,969.312,782.905,971.412,772.268z"/>
		<path id="XMLID_462_" class="st1" d="M954.511,828.034c0.988-2.387,1.494-4.927,1.494-7.505c0-7.974-4.779-15.126-12.142-18.191
			c-4.86-1.987-10.217-1.987-15.049,0c-4.86,2.014-8.642,5.806-10.657,10.656c-1.002,2.416-1.489,4.937-1.489,7.515
			c0,7.993,4.774,15.126,12.146,18.192C938.821,842.844,950.347,838.07,954.511,828.034z"/>
		<path id="XMLID_461_" class="st1" d="M899.746,884.88c9.029,6.025,21.247,3.581,27.272-5.443
			c2.178-3.236,3.304-7.009,3.304-10.914c0-6.589-3.265-12.71-8.718-16.358c-9.024-6.016-21.247-3.581-27.292,5.423
			c-2.158,3.247-3.304,7.028-3.304,10.934C891.009,875.111,894.294,881.213,899.746,884.88z"/>
		<path id="XMLID_460_" class="st1" d="M895.803,910.595c0-5.252-2.04-10.188-5.74-13.913c-7.673-7.678-20.168-7.678-27.817,0
			c-3.724,3.724-5.757,8.661-5.757,13.913c0,5.243,2.033,10.18,5.757,13.904c7.648,7.667,20.144,7.667,27.817,0
			C893.764,920.775,895.803,915.838,895.803,910.595z"/>
		<path id="XMLID_459_" class="st1" d="M845.001,961.473c5.481-3.666,8.747-9.788,8.747-16.358c0-3.905-1.15-7.667-3.323-10.933
			c-2.922-4.355-7.378-7.335-12.509-8.355c-5.157-1.031-10.394,0.019-14.763,2.94c-5.481,3.667-8.743,9.769-8.743,16.367
			c0,3.897,1.151,7.659,3.309,10.925c2.936,4.345,7.362,7.324,12.528,8.355C835.399,965.436,840.637,964.396,845.001,961.473z"/>
		<path id="XMLID_458_" class="st1" d="M778.564,952.612c-7.397,3.065-12.171,10.188-12.171,18.172c0,2.597,0.507,5.108,1.509,7.524
			c4.154,10.018,15.671,14.802,25.702,10.648c7.367-3.066,12.122-10.199,12.122-18.201c0-2.578-0.5-5.089-1.489-7.486
			C800.092,953.233,788.566,948.468,778.564,952.612z"/>
		<path id="XMLID_457_" class="st1" d="M730.163,967.298c-9.191,1.805-15.832,9.922-15.832,19.26c0,1.28,0.114,2.598,0.362,3.868
			c2.115,10.637,12.504,17.561,23.137,15.44c9.168-1.824,15.837-9.921,15.837-19.27c0-1.289-0.147-2.578-0.387-3.848
			C751.171,972.111,740.797,965.178,730.163,967.298z"/>
		<path id="XMLID_456_" class="st1" d="M679.821,1011.587c10.848,0,19.667-8.824,19.667-19.672c0-10.847-8.819-19.671-19.667-19.671
			s-19.671,8.824-19.671,19.671C660.149,1002.763,668.973,1011.587,679.821,1011.587z"/>
		<path id="XMLID_455_" class="st1" d="M644.942,990.427c0.262-1.271,0.387-2.589,0.387-3.868c0-9.338-6.647-17.456-15.832-19.26
			c-5.157-1.031-10.399,0-14.763,2.922c-4.373,2.922-7.333,7.362-8.361,12.528c-0.262,1.271-0.387,2.559-0.387,3.848
			c0,9.349,6.656,17.446,15.832,19.27c5.157,1.031,10.399-0.019,14.763-2.94C640.956,1000.014,643.916,995.554,644.942,990.427z"/>
		<path id="XMLID_454_" class="st1" d="M581.092,988.956c4.88-1.996,8.642-5.787,10.661-10.648c0.984-2.416,1.49-4.927,1.49-7.524
			c0-7.984-4.751-15.107-12.151-18.172c-4.851-2.015-10.188-2.015-15.064,0c-4.831,2.014-8.599,5.776-10.614,10.656
			c-1.007,2.397-1.509,4.908-1.509,7.516c0,7.973,4.776,15.106,12.147,18.172C570.904,990.97,576.261,990.97,581.092,988.956z"/>
		<path id="XMLID_453_" class="st1" d="M536.497,928.767c-4.364-2.921-9.606-3.972-14.763-2.94c-5.152,1.021-9.606,4-12.5,8.355
			c-2.177,3.266-3.323,7.028-3.323,10.933c0,6.57,3.261,12.692,8.719,16.358c9.042,6.026,21.284,3.59,27.291-5.414
			c2.177-3.266,3.323-7.028,3.323-10.925C545.245,938.536,541.96,932.434,536.497,928.767z"/>
		<path id="XMLID_452_" class="st1" d="M497.408,896.682c-7.673-7.659-20.144-7.659-27.821,0c-3.696,3.724-5.749,8.661-5.749,13.913
			c0,5.243,2.053,10.18,5.749,13.904c7.677,7.667,20.148,7.667,27.821,0c3.71-3.724,5.763-8.661,5.763-13.904
			C503.171,905.343,501.118,900.407,497.408,896.682z"/>
		<path id="XMLID_451_" class="st1" d="M459.904,884.88c5.457-3.667,8.718-9.769,8.718-16.377c0-3.887-1.122-7.668-3.294-10.915
			c-6.025-9.023-18.277-11.439-27.282-5.423c-5.472,3.648-8.738,9.769-8.738,16.358c0,3.905,1.156,7.678,3.305,10.914
			C438.657,888.461,450.88,890.905,459.904,884.88z"/>
		<path id="XMLID_450_" class="st1" d="M430.841,838.701c7.372-3.066,12.142-10.199,12.142-18.192c0-2.578-0.496-5.118-1.49-7.515
			c-2.014-4.85-5.795-8.642-10.652-10.656c-4.856-1.987-10.194-1.987-15.045,0c-7.39,3.065-12.146,10.217-12.146,18.191
			c0,2.578,0.507,5.118,1.49,7.505C409.313,838.07,420.81,842.844,430.841,838.701z"/>
		<path id="XMLID_449_" class="st1" d="M411.347,787.717c9.187-1.814,15.832-9.93,15.832-19.279c0-1.271-0.124-2.579-0.391-3.848
			c-2.111-10.629-12.462-17.561-23.119-15.441c-9.167,1.833-15.813,9.931-15.813,19.271c0,1.298,0.124,2.578,0.392,3.849
			C390.339,782.905,400.714,789.828,411.347,787.717z"/>
		<path id="XMLID_448_" class="st1" d="M402.179,733.937c10.839,0,19.662-8.823,19.662-19.671c0-10.839-8.823-19.662-19.662-19.662
			c-10.838,0-19.656,8.823-19.656,19.662C382.523,725.114,391.341,733.937,402.179,733.937z"/>
		<path id="XMLID_447_" class="st1" d="M388.248,656.274c-0.268,1.269-0.392,2.559-0.392,3.847c0,9.349,6.647,17.438,15.813,19.28
			c10.657,2.11,21.008-4.823,23.119-15.46c0.267-1.261,0.391-2.568,0.391-3.858c0-9.33-6.646-17.446-15.832-19.26
			C400.714,638.713,390.339,645.645,388.248,656.274z"/>
		<path id="XMLID_446_" class="st1" d="M415.796,589.85c-4.85,2.015-8.641,5.796-10.656,10.657c-0.983,2.397-1.49,4.927-1.49,7.505
			c0,8.002,4.756,15.136,12.146,18.173c4.851,2.014,10.19,2.014,15.045,0c4.857-1.996,8.638-5.779,10.652-10.638
			c0.993-2.397,1.49-4.927,1.49-7.506c0-8.001-4.769-15.135-12.142-18.191C425.985,587.854,420.647,587.854,415.796,589.85z"/>
		<path id="XMLID_445_" class="st1" d="M459.904,543.67c-9.024-6.025-21.247-3.59-27.291,5.433
			c-2.149,3.247-3.305,7.01-3.305,10.896c0,6.589,3.266,12.71,8.738,16.377c9.004,6.025,21.257,3.581,27.282-5.434
			c2.172-3.246,3.294-7.018,3.294-10.905C468.622,553.458,465.361,547.318,459.904,543.67z"/>
		<path id="XMLID_444_" class="st1" d="M463.838,517.965c0,5.242,2.053,10.179,5.749,13.884c3.715,3.724,8.67,5.777,13.903,5.777
			c5.276,0,10.218-2.053,13.918-5.758c3.71-3.724,5.763-8.661,5.763-13.903c0-5.272-2.052-10.19-5.763-13.914
			c-7.673-7.677-20.144-7.677-27.821,0C465.891,507.775,463.838,512.693,463.838,517.965z"/>
		<path id="XMLID_443_" class="st1" d="M514.631,467.068c-5.458,3.647-8.719,9.787-8.719,16.376c0,3.887,1.146,7.65,3.323,10.915
			c2.917,4.354,7.348,7.333,12.5,8.355c5.157,1.031,10.399-0.038,14.763-2.941c5.462-3.657,8.747-9.788,8.747-16.348
			c0-3.905-1.146-7.696-3.323-10.914c-2.903-4.373-7.372-7.352-12.509-8.384C524.255,463.095,519.023,464.155,514.631,467.068z"/>
		<path id="XMLID_442_" class="st1" d="M566.028,475.929c4.876,2.015,10.233,2.015,15.064,0c7.4-3.055,12.151-10.188,12.151-18.162
			c0-2.597-0.506-5.118-1.49-7.515c-4.154-10.027-15.694-14.802-25.726-10.657c-7.347,3.066-12.123,10.199-12.123,18.172
			c0,2.578,0.501,5.108,1.49,7.505C557.429,470.151,561.197,473.914,566.028,475.929z"/>
		<path id="XMLID_441_" class="st1" d="M614.734,458.311c4.364,2.941,9.606,3.963,14.763,2.941
			c9.185-1.815,15.832-9.941,15.832-19.261c0-1.288-0.124-2.597-0.387-3.867c-1.026-5.156-3.986-9.606-8.361-12.5
			c-4.364-2.921-9.606-3.972-14.763-2.95c-9.176,1.833-15.832,9.93-15.832,19.279c0,1.289,0.124,2.579,0.387,3.848
			C607.4,450.957,610.361,455.408,614.734,458.311z"/>
		<path id="XMLID_440_" class="st1" d="M679.821,416.953c-10.848,0-19.671,8.823-19.671,19.681c0,10.839,8.823,19.652,19.671,19.652
			s19.667-8.814,19.667-19.652C699.487,425.776,690.669,416.953,679.821,416.953z"/>
		<path id="XMLID_439_" class="st1" d="M714.694,438.124c-0.249,1.271-0.362,2.579-0.362,3.867c0,9.32,6.641,17.446,15.832,19.261
			c10.633,2.11,21.008-4.813,23.118-15.451c0.239-1.269,0.387-2.559,0.387-3.848c0-9.349-6.67-17.446-15.837-19.279
			C727.198,420.563,716.809,427.486,714.694,438.124z"/>
		<path id="XMLID_438_" class="st1" d="M767.901,450.251c-1.002,2.397-1.509,4.918-1.509,7.515c0,7.974,4.774,15.107,12.171,18.162
			c9.983,4.154,21.528-0.63,25.673-10.657c0.988-2.397,1.489-4.927,1.489-7.505c0-7.973-4.754-15.106-12.122-18.172
			C783.572,435.45,772.055,440.224,767.901,450.251z"/>
		<path id="XMLID_437_" class="st1" d="M823.153,499.773c9.023,6.036,21.246,3.591,27.272-5.414
			c2.172-3.266,3.323-7.028,3.323-10.915c0-6.589-3.266-12.728-8.747-16.376c-4.364-2.913-9.602-3.973-14.753-2.941
			c-5.185,1.031-9.592,4.011-12.528,8.384c-2.158,3.218-3.309,7.009-3.309,10.914C814.41,489.984,817.672,496.116,823.153,499.773z"
			/>
		<path id="XMLID_436_" class="st1" d="M862.247,531.849c3.705,3.724,8.642,5.777,13.899,5.777c5.252,0,10.194-2.053,13.918-5.777
			c3.7-3.705,5.74-8.642,5.74-13.884c0-5.272-2.04-10.19-5.74-13.914c-7.673-7.677-20.168-7.677-27.817,0
			c-3.724,3.724-5.757,8.642-5.757,13.914C856.49,523.207,858.523,528.144,862.247,531.849z"/>
		<path id="XMLID_435_" class="st1" d="M899.746,543.67c-5.453,3.648-8.738,9.769-8.738,16.367c0,3.886,1.146,7.678,3.304,10.905
			c6.045,9.015,18.268,11.459,27.292,5.434c5.453-3.667,8.718-9.788,8.718-16.377c0-3.886-1.126-7.65-3.304-10.896
			C920.994,540.08,908.775,537.645,899.746,543.67z"/>
		<path id="XMLID_434_" class="st1" d="M943.863,589.85c-4.86-1.995-10.217-1.995-15.049,0c-7.371,3.056-12.146,10.19-12.146,18.191
			c0,2.579,0.487,5.11,1.489,7.506c2.015,4.86,5.797,8.642,10.657,10.638c4.832,2.014,10.19,2.014,15.049,0
			c7.363-3.037,12.142-10.171,12.142-18.173c0-2.578-0.506-5.108-1.494-7.505C952.501,595.646,948.709,591.865,943.863,589.85z"/>
		<path id="XMLID_433_" class="st1" d="M932.453,660.084c0,1.289,0.148,2.597,0.391,3.858c2.11,10.637,12.481,17.57,23.119,15.46
			c9.186-1.843,15.832-9.931,15.832-19.28c0-1.288-0.12-2.578-0.382-3.847c-2.101-10.629-12.49-17.561-23.123-15.451
			C939.127,642.638,932.453,650.754,932.453,660.084z"/>
		<path id="XMLID_432_" class="st1" d="M1003.736,694.604c-10.828,0-19.662,8.823-19.662,19.662
			c0,10.848,8.834,19.671,19.662,19.671c10.839,0,19.657-8.823,19.657-19.671C1023.393,703.427,1014.575,694.604,1003.736,694.604z"
			/>
		<path id="XMLID_431_" class="st1" d="M1000.734,762.374c-5.133-1.088-10.384-0.115-14.778,2.741
			c-4.412,2.865-7.439,7.276-8.527,12.413c-0.277,1.346-0.435,2.74-0.435,4.106c0,9.224,6.547,17.303,15.589,19.214
			c5.138,1.088,10.39,0.123,14.802-2.741c4.388-2.855,7.41-7.267,8.499-12.404c0.296-1.356,0.444-2.721,0.444-4.107
			C1016.327,772.391,1009.781,764.294,1000.734,762.374z"/>
		<path id="XMLID_430_" class="st1" d="M983.735,828.062c-9.906-4.412-21.547,0.058-25.958,9.95c-1.146,2.559-1.71,5.233-1.71,7.993
			c0,7.773,4.569,14.829,11.679,17.961c9.892,4.441,21.552-0.038,25.964-9.949c1.126-2.531,1.69-5.233,1.69-7.993
			C995.4,838.271,990.826,831.204,983.735,828.062z"/>
		<path id="XMLID_429_" class="st1" d="M953.427,888.747c-8.785-6.37-21.089-4.412-27.459,4.364
			c-2.455,3.362-3.762,7.372-3.762,11.545c0,6.283,3.017,12.223,8.116,15.908c4.25,3.104,9.445,4.355,14.625,3.505
			c5.191-0.803,9.745-3.609,12.849-7.85c2.44-3.389,3.748-7.381,3.748-11.544C961.544,898.391,958.522,892.423,953.427,888.747z"/>
		<path id="XMLID_428_" class="st1" d="M883.394,940.37c-4.13,3.723-6.503,9.052-6.503,14.62c0,4.88,1.809,9.539,5.076,13.149
			c3.499,3.915,8.317,6.207,13.569,6.464c5.242,0.305,10.294-1.49,14.18-4.994c4.154-3.724,6.513-9.062,6.513-14.62
			c0-4.88-1.8-9.549-5.061-13.169C903.919,933.781,891.448,933.122,883.394,940.37z"/>
		<path id="XMLID_427_" class="st1" d="M846.858,975.797c-5.076-1.375-10.371-0.668-14.911,1.948
			c-6.053,3.505-9.844,10.065-9.844,17.065c0,3.428,0.93,6.837,2.635,9.817c5.443,9.406,17.485,12.624,26.872,7.21
			c6.063-3.505,9.836-10.027,9.836-17.046c0-3.438-0.907-6.847-2.621-9.826C856.184,980.409,851.934,977.144,846.858,975.797z"/>
		<path id="XMLID_426_" class="st1" d="M773.842,1003.632c-8.136,2.645-13.589,10.151-13.589,18.698c0,2.072,0.32,4.106,0.969,6.072
			c3.338,10.323,14.457,16.005,24.766,12.634c8.146-2.635,13.598-10.151,13.598-18.687c0-2.082-0.324-4.115-0.964-6.083
			C795.279,1005.953,784.154,1000.291,773.842,1003.632z"/>
		<path id="XMLID_425_" class="st1" d="M711.629,1016.849c-10.046,1.069-17.623,9.464-17.623,19.557
			c0,0.687,0.043,1.364,0.119,2.052c1.131,10.791,10.839,18.649,21.61,17.504c10.055-1.05,17.604-9.445,17.604-19.528
			c0-0.688-0.015-1.375-0.096-2.083C732.092,1023.581,722.4,1015.722,711.629,1016.849z"/>
		<path id="XMLID_424_" class="st1" d="M665.53,1038.458c0.062-0.688,0.096-1.365,0.096-2.052c0-10.094-7.567-18.488-17.599-19.557
			c-5.219-0.545-10.356,0.993-14.443,4.288c-4.069,3.304-6.628,8.001-7.172,13.215c-0.077,0.708-0.119,1.395-0.119,2.083
			c0,10.083,7.567,18.478,17.623,19.528c5.214,0.564,10.332-0.965,14.419-4.269C662.422,1048.39,664.981,1043.7,665.53,1038.458z"/>
		<path id="XMLID_423_" class="st1" d="M585.81,1003.632c-10.314-3.342-21.434,2.321-24.79,12.634
			c-0.63,1.968-0.969,4.001-0.969,6.083c0,8.537,5.476,16.052,13.593,18.687c10.332,3.371,21.433-2.31,24.789-12.634
			c0.626-1.967,0.97-4,0.97-6.053C599.403,1013.783,593.945,1006.278,585.81,1003.632z"/>
		<path id="XMLID_422_" class="st1" d="M527.703,977.745c-4.554-2.616-9.854-3.323-14.925-1.948
			c-5.08,1.347-9.31,4.612-11.946,9.168c-1.729,2.979-2.636,6.388-2.636,9.826c0,7.018,3.767,13.541,9.845,17.046
			c9.387,5.414,21.428,2.195,26.852-7.21c1.729-2.979,2.636-6.388,2.636-9.817C537.529,987.781,533.762,981.25,527.703,977.745z"/>
		<path id="XMLID_421_" class="st1" d="M448.464,941.84c-3.261,3.601-5.052,8.27-5.052,13.15c0,5.557,2.372,10.895,6.503,14.62
			c3.911,3.504,8.947,5.299,14.199,4.994c5.238-0.257,10.075-2.549,13.579-6.464c3.262-3.609,5.052-8.269,5.052-13.149
			c0-5.568-2.372-10.896-6.508-14.62C468.184,933.122,455.735,933.781,448.464,941.84z"/>
		<path id="XMLID_420_" class="st1" d="M414.689,924.069c5.195,0.85,10.399-0.401,14.663-3.505
			c5.057-3.685,8.103-9.625,8.103-15.908c0-4.173-1.313-8.184-3.772-11.545c-3.085-4.269-7.654-7.037-12.824-7.897
			c-5.204-0.802-10.399,0.449-14.649,3.533c-5.075,3.676-8.116,9.644-8.116,15.928c0,4.163,1.307,8.155,3.762,11.544
			C404.958,920.46,409.494,923.267,414.689,924.069z"/>
		<path id="XMLID_419_" class="st1" d="M403.573,846.006c0-2.76-0.563-5.434-1.694-7.993c-4.412-9.892-16.048-14.362-25.959-9.95
			c-7.09,3.142-11.688,10.208-11.688,17.962c0,2.76,0.592,5.462,1.714,7.993c4.435,9.911,16.056,14.39,25.964,9.949
			C399,860.835,403.573,853.778,403.573,846.006z"/>
		<path id="XMLID_418_" class="st1" d="M382.661,781.634c0-1.365-0.153-2.759-0.439-4.106
			c-2.259-10.599-12.728-17.408-23.324-15.155c-9.048,1.919-15.589,10.017-15.589,19.222c0,1.385,0.162,2.751,0.449,4.107
			c1.083,5.137,4.124,9.549,8.508,12.404c4.411,2.864,9.673,3.829,14.81,2.741C376.101,798.937,382.661,790.859,382.661,781.634z"/>
		<path id="XMLID_417_" class="st1" d="M375.576,714.266c0-10.839-8.824-19.662-19.662-19.662c-10.857,0-19.676,8.823-19.676,19.662
			c0,10.848,8.819,19.671,19.676,19.671C366.752,733.937,375.576,725.114,375.576,714.266z"/>
		<path id="XMLID_416_" class="st1" d="M358.898,666.167c10.614,2.253,21.065-4.555,23.324-15.145
			c0.287-1.356,0.439-2.721,0.439-4.116c0-9.214-6.56-17.293-15.585-19.213c-10.594-2.253-21.07,4.536-23.318,15.145
			c-0.287,1.346-0.449,2.721-0.449,4.116C343.309,656.15,349.851,664.257,358.898,666.167z"/>
		<path id="XMLID_415_" class="st1" d="M375.92,600.488c9.911,4.43,21.547-0.058,25.959-9.969c1.131-2.521,1.694-5.223,1.694-7.983
			c0-7.773-4.573-14.82-11.663-17.981c-4.799-2.139-10.146-2.282-15.045-0.381c-4.888,1.872-8.78,5.557-10.919,10.351
			c-1.122,2.531-1.714,5.243-1.714,7.993C364.232,590.27,368.829,597.318,375.92,600.488z"/>
		<path id="XMLID_414_" class="st1" d="M406.209,539.803c8.781,6.36,21.085,4.412,27.473-4.354c2.459-3.39,3.772-7.391,3.772-11.555
			c0-6.274-3.046-12.232-8.103-15.919c-4.264-3.103-9.468-4.325-14.663-3.523c-5.175,0.821-9.73,3.619-12.81,7.877
			c-2.479,3.382-3.786,7.363-3.786,11.536C398.093,530.148,401.134,536.098,406.209,539.803z"/>
		<path id="XMLID_413_" class="st1" d="M476.238,488.17c4.135-3.724,6.508-9.062,6.508-14.62c0-4.87-1.79-9.549-5.052-13.149
			c-3.504-3.905-8.341-6.198-13.579-6.484c-5.252-0.285-10.289,1.51-14.199,5.033c-4.131,3.715-6.503,9.043-6.503,14.601
			c0,4.88,1.791,9.549,5.052,13.159C455.716,494.788,468.184,495.428,476.238,488.17z"/>
		<path id="XMLID_412_" class="st1" d="M527.703,450.795c6.06-3.523,9.826-10.045,9.826-17.064c0-3.419-0.907-6.828-2.636-9.807
			c-2.625-4.555-6.87-7.811-11.945-9.157c-5.057-1.376-10.352-0.669-14.907,1.947c-6.078,3.505-9.845,10.027-9.845,17.046
			c0,3.438,0.907,6.847,2.636,9.826C506.255,452.973,518.316,456.21,527.703,450.795z"/>
		<path id="XMLID_411_" class="st1" d="M573.644,387.513c-8.117,2.636-13.593,10.151-13.593,18.688c0,2.053,0.339,4.107,0.969,6.083
			c3.357,10.313,14.476,15.966,24.79,12.633c8.135-2.644,13.593-10.149,13.593-18.716c0-2.053-0.344-4.107-0.97-6.064
			C595.076,389.824,583.976,384.171,573.644,387.513z"/>
		<path id="XMLID_410_" class="st1" d="M648.027,411.702c10.031-1.069,17.599-9.464,17.599-19.557c0-0.687-0.034-1.394-0.096-2.082
			c-0.549-5.214-3.108-9.902-7.194-13.225c-4.088-3.285-9.206-4.813-14.419-4.278c-10.056,1.069-17.623,9.473-17.623,19.566
			c0,0.678,0.042,1.366,0.119,2.072C627.539,404.979,637.232,412.828,648.027,411.702z"/>
		<path id="XMLID_409_" class="st1" d="M694.125,390.062c-0.076,0.688-0.119,1.395-0.119,2.082c0,10.094,7.577,18.488,17.623,19.557
			c10.771,1.126,20.463-6.722,21.614-17.504c0.081-0.706,0.096-1.394,0.096-2.072c0-10.093-7.549-18.496-17.604-19.566
			C704.964,371.442,695.257,379.291,694.125,390.062z"/>
		<path id="XMLID_408_" class="st1" d="M773.842,424.917c10.312,3.333,21.437-2.32,24.78-12.633c0.639-1.976,0.964-4.03,0.964-6.083
			c0-8.538-5.452-16.052-13.598-18.688c-10.309-3.342-21.428,2.311-24.766,12.624c-0.649,1.957-0.969,4.011-0.969,6.092
			C760.253,414.767,765.706,422.272,773.842,424.917z"/>
		<path id="XMLID_407_" class="st1" d="M831.947,450.795c9.388,5.415,21.439,2.178,26.877-7.209
			c1.714-2.979,2.621-6.388,2.621-9.826c0-7.018-3.773-13.541-9.836-17.046c-4.555-2.616-9.846-3.323-14.926-1.947
			c-5.075,1.346-9.3,4.602-11.946,9.157c-1.705,2.979-2.635,6.388-2.635,9.807C822.103,440.75,825.894,447.272,831.947,450.795z"/>
		<path id="XMLID_406_" class="st1" d="M911.168,486.71c3.261-3.61,5.061-8.28,5.061-13.159c0-5.557-2.359-10.886-6.513-14.601
			c-3.886-3.523-8.938-5.318-14.18-5.033c-5.252,0.287-10.07,2.579-13.569,6.484c-3.267,3.6-5.076,8.278-5.076,13.149
			c0,5.557,2.374,10.895,6.503,14.62C891.448,495.428,903.919,494.788,911.168,486.71z"/>
		<path id="XMLID_405_" class="st1" d="M944.947,504.452c-5.18-0.802-10.375,0.42-14.625,3.523
			c-5.099,3.686-8.116,9.645-8.116,15.919c0,4.163,1.307,8.165,3.762,11.555c6.37,8.766,18.673,10.714,27.459,4.354
			c5.095-3.705,8.117-9.654,8.117-15.937c0-4.173-1.308-8.154-3.748-11.536C954.692,508.071,950.138,505.273,944.947,504.452z"/>
		<path id="XMLID_404_" class="st1" d="M956.067,582.535c0,2.76,0.564,5.462,1.71,7.983c4.411,9.911,16.052,14.399,25.958,9.969
			c7.091-3.17,11.664-10.218,11.664-17.972c0-2.75-0.564-5.462-1.69-7.993c-2.158-4.793-6.026-8.479-10.934-10.351
			c-4.898-1.901-10.236-1.757-15.029,0.381C960.636,567.715,956.067,574.762,956.067,582.535z"/>
		<path id="XMLID_403_" class="st1" d="M976.994,646.905c0,1.376,0.158,2.76,0.435,4.116c2.239,10.59,12.709,17.399,23.305,15.145
			c9.047-1.91,15.593-10.017,15.593-19.213c0-1.395-0.148-2.77-0.444-4.116c-1.088-5.146-4.111-9.539-8.499-12.404
			c-4.412-2.855-9.664-3.83-14.802-2.741C983.54,629.612,976.994,637.691,976.994,646.905z"/>
		<path id="XMLID_402_" class="st1" d="M1050.002,694.604c-10.839,0-19.657,8.823-19.657,19.662
			c0,10.848,8.819,19.671,19.657,19.671c10.857,0,19.681-8.823,19.681-19.671C1069.682,703.427,1060.859,694.604,1050.002,694.604z"
			/>
		<path id="XMLID_401_" class="st1" d="M927.669,962.113c-3.715,3.734-5.768,8.671-5.768,13.923s2.053,10.198,5.768,13.903
			c7.673,7.678,20.158,7.678,27.816,0c3.724-3.705,5.777-8.651,5.777-13.903s-2.053-10.19-5.777-13.923
			C947.826,954.464,935.341,954.464,927.669,962.113z"/>
		<path id="XMLID_400_" class="st1" d="M679.821,1064.804c-10.848,0-19.671,8.823-19.671,19.661
			c0,10.829,8.823,19.652,19.671,19.652s19.667-8.823,19.667-19.652C699.487,1073.627,690.669,1064.804,679.821,1064.804z"/>
		<path id="XMLID_399_" class="st1" d="M404.157,962.113c-3.724,3.734-5.764,8.671-5.764,13.923s2.04,10.198,5.764,13.903
			c7.658,7.678,20.139,7.678,27.816,0c3.705-3.705,5.758-8.651,5.758-13.903s-2.053-10.19-5.758-13.923
			C424.296,954.464,411.815,954.464,404.157,962.113z"/>
		<path id="XMLID_398_" class="st1" d="M309.63,694.604c-10.838,0-19.652,8.823-19.652,19.662c0,10.848,8.814,19.671,19.652,19.671
			c10.857,0,19.662-8.823,19.662-19.671C329.291,703.427,320.487,694.604,309.63,694.604z"/>
		<path id="XMLID_397_" class="st1" d="M418.056,472.167c5.256,0,10.193-2.034,13.917-5.749c3.705-3.724,5.758-8.651,5.758-13.913
			c0-5.252-2.053-10.19-5.758-13.914c-7.677-7.658-20.158-7.658-27.816,0c-3.724,3.724-5.764,8.662-5.764,13.914
			c0,5.261,2.04,10.188,5.764,13.913C407.861,470.132,412.818,472.167,418.056,472.167z"/>
		<path id="XMLID_396_" class="st1" d="M679.821,363.746c10.848,0,19.667-8.805,19.667-19.662c0-10.829-8.819-19.652-19.667-19.652
			s-19.671,8.823-19.671,19.652C660.149,354.941,668.973,363.746,679.821,363.746z"/>
		<path id="XMLID_395_" class="st1" d="M941.581,472.167c5.261,0,10.207-2.034,13.903-5.749c3.724-3.724,5.777-8.651,5.777-13.913
			c0-5.252-2.053-10.19-5.777-13.914c-7.658-7.658-20.143-7.658-27.816,0c-3.715,3.724-5.768,8.662-5.768,13.914
			c0,5.261,2.053,10.188,5.768,13.913C931.393,470.132,936.324,472.167,941.581,472.167z"/>
		<path id="XMLID_394_" class="st1" d="M263.369,694.604c-10.863,0-19.682,8.823-19.682,19.662c0,10.848,8.819,19.671,19.682,19.671
			c10.833,0,19.656-8.823,19.656-19.671C283.026,703.427,274.202,694.604,263.369,694.604z"/>
	</g>
	<path id="XMLID_392_" class="st1" d="M638.961,681.183v-12.127v-24.685h24.465h89.528v-31.407c-2.751,0-5.501,0-8.252,0
		c-6.879,0-13.759,0-20.638,0c-8.956,0-17.912,0-26.869,0c-16.658,0-33.321-0.141-49.992-0.11c-5.79,0.01-13.151-0.425-18.615,0.497
		c-9.646,1.627-17.404,9.371-20.445,18.655c-1.576,4.807-1.468,10.184-1.461,15.207c0.013,11.163,0.052,22.303,0.052,33.468
		c0,10.182,0,20.364,0,30.546c0,10.907,0,21.813,0,32.719c0,10.256,0,20.511,0,30.766c0,8.23,0,16.459,0,24.688
		c0,4.828,0,9.656,0,14.485c0,0.71,0,1.42,0,2.13h32.229v-75.571l0,0v-4.842l0,0v-13.645c0.923,0.001,1.845,0.003,2.768,0.005
		c2.402,0.003,4.804,0.007,7.207,0.012c3.335,0.006,6.672,0.012,10.008,0.017c3.724,0.006,7.448,0.013,11.172,0.019
		c3.044,0.006,6.088-0.071,9.131-0.022c3.194,0.051,6.442-0.067,9.636-0.017c1.404,0.022,2.855-0.022,4.26,0
		c5.814,0.092,11.458,0.251,16.858-2.15c0.952-0.423,1.88-0.899,2.779-1.424c3.758-2.198,6.994-5.261,9.396-8.892
		c2.454-3.708,4.01-7.983,4.513-12.403c0.123-1.081,0.184-2.169,0.184-3.257c0-0.965-0.043-1.891-0.148-2.827h-56.654h-31.111
		v-5.004V681.183z"/>
	<g id="XMLID_367_">
		<g id="XMLID_380_">
			<path id="XMLID_390_" class="st1" d="M1893.729,983.535v115.878h70.368v9.119h-80.003V983.535H1893.729z"/>
			<path id="XMLID_387_" class="st1" d="M2081.78,1108.532l-13.737-30.71h-74.641l-13.579,30.71h-10.351l56.062-124.998h10.533
				l56.082,124.998H2081.78z M2064.301,1068.885l-33.598-76.068l-33.556,76.068H2064.301z"/>
			<path id="XMLID_383_" class="st1" d="M2198.758,1017.635c0,12.862-7.85,22.851-20.35,26.776
				c15.728,4.306,24.642,16.977,24.642,31.436c0,25.725-23.921,32.686-45.349,32.686c-18.215,0-33.044,0-51.245,0V983.535
				c18.01,0,33.03,0,51.245,0C2178.78,983.535,2198.758,993.885,2198.758,1017.635z M2116.08,1040.142h42.857
				c15.006,0,30.719-4.641,30.719-22.507c0-18.22-16.405-25.888-31.956-25.888h-41.62V1040.142z M2116.08,1099.241h41.62
				c15.709,0,35.906-3.754,35.906-23.568c-0.206-19.47-17.872-26.422-34.669-26.422c-14.992,0-27.855,0-42.857,0V1099.241z"/>
			<path id="XMLID_381_" class="st1" d="M2310.931,1007.645c-9.1-14.648-23.749-16.796-37.872-16.969
				c-14.628,0-37.852,5.349-37.852,25.354c0,15.909,17.15,19.643,38.224,23.567c24.102,4.651,49.107,8.947,49.107,35.895
				c-0.167,28.228-28.576,35.007-49.48,35.007c-19.441,0-41.596-8.04-51.25-27.148l8.594-4.288
				c7.658,15.193,27.301,22.689,42.656,22.689c15.375,0,39.839-4.297,39.839-26.442c0.172-18.745-20.521-22.851-41.09-26.766
				c-22.856-4.478-46.227-9.11-46.227-32.161c-0.535-26.431,26.952-34.634,47.478-34.634c17.866,0,33.404,2.846,45.722,21.246
				L2310.931,1007.645z"/>
		</g>
		<path id="XMLID_378_" class="st1" d="M1530.967,859.605c1.165-50.343,27.956-75.371,80.06-75.371h5.596v33.728l0,0h-14.333
			c-21.777,0-37.605,18.382-37.605,41.06v80.844h0.019h-33.738V859.605z"/>
		<path id="XMLID_377_" class="st1" d="M2067.199,784.932c-4.372,0-8.73,0.909-12.729,2.681c-3.875,1.717-7.388,4.227-10.279,7.327
			c-2.899,3.11-5.161,6.804-6.602,10.805c-0.739,2.052-1.262,4.182-1.56,6.343c-0.387,2.799-0.316,5.646-0.304,8.467
			c0.015,3.497,0.016,6.994,0.016,10.492c0,3.762,0,7.525,0,11.287c0,3.963,0,7.926,0,11.889c0,3.559,0,7.119,0,10.677
			c0,2.552,0,5.104,0,7.656c0,0.942,0,1.883,0.005,2.824c-0.296,16.731-13.928,30.195-30.739,30.195
			c-16.801,0-30.433-13.464-30.729-30.195v-90.058h-36.187c0,0,0,90.058,0.034,90.058c1.327,35.857,30.7,64.534,66.882,64.534
			c36.177,0,65.565-28.676,66.925-64.534v-34.481v-55.577v-0.391H2067.199z"/>
		<g id="XMLID_374_">
			<path id="XMLID_376_" class="st1" d="M1889.547,740.069c-1.872,0-3.681,0.201-5.453,0.554v31.14h33.27
				c0.162-1.194,0.249-2.397,0.249-3.638C1917.612,752.646,1905.06,740.069,1889.547,740.069z"/>
			<path id="XMLID_375_" class="st1" d="M1917.779,813.199c-0.053-2.404-0.248-4.798-0.827-7.138
				c-0.121-0.493-0.259-0.981-0.414-1.464c-0.969-3.043-2.462-5.913-4.391-8.459c-3.858-5.092-9.422-8.796-15.62-10.355
				c-2.26-0.569-4.588-0.852-6.917-0.852c-1.91,0-3.743,0.191-5.515,0.525v28.543v2.855v123.013h33.637c0-1.047,0-2.093,0-3.139
				c0-2.856,0-5.711,0-8.567c0-4.24,0-8.482,0-12.723c0-5.205,0-10.41,0-15.614c0-5.745,0-11.491,0-17.235
				c0-5.862,0-11.724,0-17.586c0-5.557,0-11.113,0-16.671c0-4.828,0-9.656,0-14.486c0-4.738,0.01-9.475,0.023-14.213
				C1917.761,817.5,1917.826,815.345,1917.779,813.199z"/>
		</g>
		<path id="XMLID_373_" class="st1" d="M1253.668,807.103v-12.128V770.29h24.464h89.528v-31.406c-2.751,0-5.501,0-8.252,0
			c-6.879,0-13.759,0-20.638,0c-8.956,0-17.913,0-26.869,0c-16.658,0-33.322-0.326-49.992-0.111
			c-6.099,0.079-12.659-0.452-18.617,0.498c-9.66,1.539-17.403,9.371-20.444,18.654c-1.576,4.808-1.466,10.185-1.461,15.208
			c0.013,11.162,0.052,22.302,0.052,33.467c0,10.182,0,20.365,0,30.548c0,10.906,0,21.812,0,32.719c0,10.255,0,20.511,0,30.766
			c0,8.229,0,16.459,0,24.688c0,4.827,0,9.656,0,14.485c0,0.71,0,1.42,0,2.13h32.229v-75.571l0,0v-4.842l0,0v-13.645
			c0.923,0.001,1.845,0.002,2.768,0.004c2.402,0.004,4.805,0.008,7.207,0.013c3.335,0.005,6.672,0.012,10.007,0.017
			c3.725,0.006,7.449,0.013,11.174,0.019c3.044,0.005,6.087-0.071,9.131-0.023c3.194,0.052,6.442-0.067,9.636-0.016
			c1.405,0.022,2.855-0.023,4.26,0c5.814,0.092,11.458,0.25,16.858-2.15c0.952-0.423,1.88-0.899,2.779-1.425
			c3.758-2.198,6.994-5.26,9.396-8.891c2.454-3.709,4.01-7.984,4.513-12.403c0.123-1.082,0.184-2.17,0.184-3.257
			c0-0.965-0.043-1.891-0.149-2.827h-56.654h-31.111v-5.004V807.103z"/>
		<path id="XMLID_372_" class="st1" d="M1867.57,849.645c-1.323-35.857-30.706-64.533-66.891-64.533
			c-19.314,0-36.655,8.203-48.883,21.285c-12.227-13.082-29.588-21.285-48.895-21.285c-36.177,0-65.565,28.675-66.892,64.533h-0.047
			v90.221h36.191v-90.202c0.311-16.73,13.922-30.212,30.749-30.212c16.954,0,30.7,13.722,30.748,30.661h0.043v89.754h36.19v-89.754
			h0.02c0.081-16.939,13.822-30.661,30.777-30.661c16.82,0,30.438,13.454,30.748,30.193h-0.015v53.007v4.584
			c1.195,18.258,16.339,32.697,34.893,32.697c0.42,0,0.86-0.039,1.299-0.066v-63.053v-27.168H1867.57z"/>
		<path id="XMLID_371_" class="st1" d="M2322.179,849.645c-1.328-35.857-30.71-64.533-66.892-64.533
			c-19.318,0-36.659,8.203-48.882,21.285c-12.232-13.082-29.593-21.285-48.911-21.285c-36.171,0-65.554,28.675-66.882,64.533h-0.043
			v90.221h36.187v-90.202c0.311-16.73,13.923-30.212,30.738-30.212c16.965,0,30.711,13.722,30.758,30.661h0.048v89.754h36.191
			v-89.754h0.02c0.081-16.939,13.817-30.661,30.776-30.661c16.816,0,30.434,13.454,30.749,30.193h-0.015v53.007v4.584
			c1.189,18.258,16.333,32.697,34.888,32.697c0.42,0,0.864-0.039,1.303-0.066v-63.053v-27.168H2322.179z"/>
		<path id="XMLID_368_" class="st1" d="M1492.924,874.579c6.847,0,13.283-3.817,16.58-9.815c1.381-2.514,2.14-5.315,2.308-8.176
			c0.067-1.14,0.039-2.284,0.01-3.427c-0.101-4.112-0.332-8.14-1.117-12.183c-0.628-3.236-1.488-6.427-2.571-9.542
			c-2.125-6.109-5.112-11.914-8.838-17.202c-3.689-5.237-8.101-9.961-13.073-14.001c-4.999-4.063-10.56-7.431-16.482-9.97
			c-6.069-2.602-12.507-4.326-19.063-5.111c-2.777-0.332-5.574-0.497-8.371-0.497c-36.252,0-66.026,27.702-69.349,63.091
			l-0.239,12.232v14.601c0.525,8.279,2.359,16.205,5.457,23.49c10.795,25.135,35.771,42.723,64.877,42.723
			c29.081,0,54.058-17.588,64.853-42.723h-37.986c-5.796,8.634-15.69,14.315-26.867,14.315c-11.216,0-21.09-5.682-26.872-14.315
			c-3.49-5.184-5.495-11.392-5.495-18.104c0-1.843,0.181-3.628,0.181-5.386H1492.924z M1442.328,815.04
			c17.003,0,30.777,13.789,30.777,30.777c0,1.156-0.081,2.272-0.224,3.399h-61.994c-0.119-1.126-0.2-2.243-0.2-3.399
			C1410.687,828.829,1425.325,815.04,1442.328,815.04z"/>
	</g>
</g>
<g id="XMLID_1_">
</g>
<g id="XMLID_2_">
</g>
<g id="XMLID_3_">
</g>
<g id="XMLID_4_">
</g>
<g id="XMLID_5_">
</g>
<g id="XMLID_6_">
</g>
<g id="XMLID_7_">
</g>
<g id="XMLID_8_">
</g>
<g id="XMLID_9_">
</g>
<g id="XMLID_10_">
</g>
<g id="XMLID_11_">
</g>
<g id="XMLID_12_">
</g>
<g id="XMLID_13_">
</g>
<g id="XMLID_14_">
</g>
<g id="XMLID_15_">
</g>
</svg>
