<svg id="Livello_1" data-name="Livello 1" xmlns="http://www.w3.org/2000/svg" xmlns:xlink="http://www.w3.org/1999/xlink" viewBox="0 0 2560 1440"><defs><style>.cls-1{fill:url(#Sfumatura_senza_nome_2);}.cls-2{fill:url(#linear-gradient);}.cls-3{fill:url(#linear-gradient-2);}.cls-4{fill:url(#linear-gradient-3);}.cls-5{fill:url(#linear-gradient-4);}.cls-6{fill:url(#linear-gradient-5);}.cls-7{fill:url(#linear-gradient-6);}.cls-8{fill:url(#linear-gradient-7);}.cls-9{fill:url(#linear-gradient-8);}.cls-10{fill:url(#linear-gradient-9);}.cls-11{fill:url(#linear-gradient-10);}.cls-12{fill:url(#linear-gradient-11);}.cls-13{fill:url(#linear-gradient-12);}.cls-14{fill:url(#linear-gradient-13);}.cls-15{fill:url(#linear-gradient-14);}.cls-16{fill:url(#linear-gradient-15);}.cls-17{fill:url(#linear-gradient-16);}.cls-18{fill:url(#linear-gradient-17);}.cls-19{fill:url(#linear-gradient-18);}.cls-20{fill:url(#linear-gradient-19);}.cls-21{fill:url(#linear-gradient-20);}.cls-22{fill:url(#linear-gradient-21);}.cls-23{fill:url(#linear-gradient-22);}.cls-24{fill:url(#linear-gradient-23);}.cls-25{fill:url(#linear-gradient-24);}.cls-26{fill:url(#linear-gradient-25);}.cls-27{fill:url(#linear-gradient-26);}.cls-28{fill:url(#linear-gradient-27);}.cls-29{fill:url(#linear-gradient-28);}.cls-30{fill:url(#linear-gradient-29);}.cls-31{fill:url(#linear-gradient-30);}.cls-32{fill:url(#linear-gradient-31);}.cls-33{fill:url(#linear-gradient-32);}.cls-34{fill:url(#linear-gradient-33);}.cls-35{fill:url(#linear-gradient-34);}.cls-36{fill:url(#linear-gradient-35);}.cls-37{fill:url(#linear-gradient-36);}.cls-38{fill:url(#linear-gradient-37);}.cls-39{fill:url(#linear-gradient-38);}.cls-40{fill:url(#linear-gradient-39);}.cls-41{fill:url(#linear-gradient-40);}.cls-42{fill:url(#linear-gradient-41);}.cls-43{fill:url(#linear-gradient-42);}.cls-44{fill:url(#linear-gradient-43);}.cls-45{fill:url(#linear-gradient-44);}.cls-46{fill:url(#linear-gradient-45);}.cls-47{fill:url(#linear-gradient-46);}.cls-48{fill:url(#linear-gradient-47);}.cls-49{fill:url(#linear-gradient-48);}.cls-50{fill:url(#linear-gradient-49);}.cls-51{fill:url(#linear-gradient-50);}.cls-52{fill:url(#linear-gradient-51);}.cls-53{fill:url(#linear-gradient-52);}.cls-54{fill:url(#linear-gradient-53);}.cls-55{fill:url(#linear-gradient-54);}.cls-56{fill:url(#linear-gradient-55);}.cls-57{fill:url(#linear-gradient-56);}.cls-58{fill:url(#linear-gradient-57);}.cls-59{fill:url(#linear-gradient-58);}.cls-60{fill:url(#linear-gradient-59);}.cls-61{fill:url(#linear-gradient-60);}.cls-62{fill:url(#linear-gradient-61);}.cls-63{fill:url(#linear-gradient-62);}.cls-64{fill:url(#linear-gradient-63);}.cls-65{fill:url(#linear-gradient-64);}.cls-66{fill:url(#linear-gradient-65);}.cls-67{fill:url(#linear-gradient-66);}.cls-68{fill:url(#linear-gradient-67);}.cls-69{fill:url(#linear-gradient-68);}.cls-70{fill:url(#linear-gradient-69);}.cls-71{fill:url(#linear-gradient-70);}.cls-72{fill:url(#linear-gradient-71);}.cls-73{fill:url(#linear-gradient-72);}.cls-74{fill:url(#linear-gradient-73);}.cls-75{fill:url(#linear-gradient-74);}.cls-76{fill:url(#linear-gradient-75);}.cls-77{fill:url(#linear-gradient-76);}.cls-78{fill:url(#linear-gradient-77);}.cls-79{fill:url(#linear-gradient-78);}.cls-80{fill:url(#linear-gradient-79);}.cls-81{fill:url(#linear-gradient-80);}.cls-82{fill:url(#linear-gradient-81);}.cls-83{fill:url(#linear-gradient-82);}.cls-84{fill:url(#linear-gradient-83);}.cls-85{fill:url(#linear-gradient-84);}.cls-86{fill:url(#linear-gradient-85);}.cls-87{fill:url(#linear-gradient-86);}.cls-88{fill:url(#linear-gradient-87);}.cls-89{fill:url(#linear-gradient-88);}.cls-90{fill:url(#linear-gradient-89);}.cls-91{fill:url(#linear-gradient-90);}.cls-92{fill:url(#linear-gradient-91);}.cls-93{fill:url(#linear-gradient-92);}.cls-94{fill:url(#linear-gradient-93);}.cls-95{fill:url(#linear-gradient-94);}.cls-96{fill:url(#linear-gradient-95);}.cls-97{fill:url(#linear-gradient-96);}.cls-98{fill:url(#linear-gradient-97);}.cls-99{fill:url(#linear-gradient-98);}.cls-100{fill:url(#linear-gradient-99);}.cls-101{fill:url(#linear-gradient-100);}.cls-102{fill:url(#linear-gradient-101);}.cls-103{fill:url(#linear-gradient-102);}.cls-104{fill:url(#linear-gradient-103);}.cls-105{fill:url(#linear-gradient-104);}.cls-106{fill:url(#linear-gradient-105);}.cls-107{fill:url(#linear-gradient-106);}.cls-108{fill:url(#linear-gradient-107);}.cls-109{fill:url(#linear-gradient-108);}.cls-110{fill:url(#linear-gradient-109);}.cls-111{fill:url(#linear-gradient-110);}</style><linearGradient id="Sfumatura_senza_nome_2" x1="60.48" y1="1596.75" x2="2523.44" y2="-175.38" gradientUnits="userSpaceOnUse"><stop offset="0" stop-color="#ea2749"/><stop offset="0.43" stop-color="#ee4b41"/><stop offset="0.78" stop-color="#f0623c"/><stop offset="1" stop-color="#f16a3a"/></linearGradient><linearGradient id="linear-gradient" x1="965.48" y1="721.25" x2="1006.43" y2="721.25" gradientTransform="translate(126.17 70.99) scale(0.9)" gradientUnits="userSpaceOnUse"><stop offset="1" stop-color="#fff"/><stop offset="1"/></linearGradient><linearGradient id="linear-gradient-2" x1="676.52" y1="721.25" x2="717.44" y2="721.25" xlink:href="#linear-gradient"/><linearGradient id="linear-gradient-3" x1="387.53" y1="721.25" x2="428.48" y2="721.25" xlink:href="#linear-gradient"/><linearGradient id="linear-gradient-4" x1="724.67" y1="721.25" x2="765.61" y2="721.25" xlink:href="#linear-gradient"/><linearGradient id="linear-gradient-5" x1="668.23" y1="857.47" x2="709.18" y2="857.47" xlink:href="#linear-gradient"/><linearGradient id="linear-gradient-6" x1="532.01" y1="913.91" x2="572.96" y2="913.91" xlink:href="#linear-gradient"/><linearGradient id="linear-gradient-7" x1="395.79" y1="857.47" x2="436.73" y2="857.47" xlink:href="#linear-gradient"/><linearGradient id="linear-gradient-8" x1="339.36" y1="721.25" x2="380.32" y2="721.25" xlink:href="#linear-gradient"/><linearGradient id="linear-gradient-9" x1="395.79" y1="585.03" x2="436.73" y2="585.03" xlink:href="#linear-gradient"/><linearGradient id="linear-gradient-10" x1="532.01" y1="528.6" x2="572.96" y2="528.6" xlink:href="#linear-gradient"/><linearGradient id="linear-gradient-11" x1="668.23" y1="585.03" x2="709.18" y2="585.03" xlink:href="#linear-gradient"/><linearGradient id="linear-gradient-12" x1="772.85" y1="721.25" x2="813.79" y2="721.25" xlink:href="#linear-gradient"/><linearGradient id="linear-gradient-13" x1="758.32" y1="803.62" x2="799.26" y2="803.62" xlink:href="#linear-gradient"/><linearGradient id="linear-gradient-14" x1="716.49" y1="876.04" x2="757.44" y2="876.04" xlink:href="#linear-gradient"/><linearGradient id="linear-gradient-15" x1="652.43" y1="929.81" x2="693.37" y2="929.81" xlink:href="#linear-gradient"/><linearGradient id="linear-gradient-16" x1="573.84" y1="958.41" x2="614.78" y2="958.41" xlink:href="#linear-gradient"/><linearGradient id="linear-gradient-17" x1="490.21" y1="958.41" x2="531.13" y2="958.41" xlink:href="#linear-gradient"/><linearGradient id="linear-gradient-18" x1="411.6" y1="929.81" x2="452.56" y2="929.81" xlink:href="#linear-gradient"/><linearGradient id="linear-gradient-19" x1="347.55" y1="876.03" x2="388.5" y2="876.03" xlink:href="#linear-gradient"/><linearGradient id="linear-gradient-20" x1="305.73" y1="803.62" x2="346.67" y2="803.62" xlink:href="#linear-gradient"/><linearGradient id="linear-gradient-21" x1="291.2" y1="721.25" x2="332.15" y2="721.25" xlink:href="#linear-gradient"/><linearGradient id="linear-gradient-22" x1="305.73" y1="638.88" x2="346.67" y2="638.88" xlink:href="#linear-gradient"/><linearGradient id="linear-gradient-23" x1="347.55" y1="566.45" x2="388.5" y2="566.45" xlink:href="#linear-gradient"/><linearGradient id="linear-gradient-24" x1="411.6" y1="512.71" x2="452.56" y2="512.71" xlink:href="#linear-gradient"/><linearGradient id="linear-gradient-25" x1="490.21" y1="484.09" x2="531.13" y2="484.09" xlink:href="#linear-gradient"/><linearGradient id="linear-gradient-26" x1="573.84" y1="484.09" x2="614.78" y2="484.09" xlink:href="#linear-gradient"/><linearGradient id="linear-gradient-27" x1="652.43" y1="512.71" x2="693.37" y2="512.71" xlink:href="#linear-gradient"/><linearGradient id="linear-gradient-28" x1="716.49" y1="566.45" x2="757.44" y2="566.45" xlink:href="#linear-gradient"/><linearGradient id="linear-gradient-29" x1="758.32" y1="638.88" x2="799.26" y2="638.88" xlink:href="#linear-gradient"/><linearGradient id="linear-gradient-30" x1="821.01" y1="721.25" x2="861.95" y2="721.25" xlink:href="#linear-gradient"/><linearGradient id="linear-gradient-31" x1="815.44" y1="777.62" x2="856.39" y2="777.62" xlink:href="#linear-gradient"/><linearGradient id="linear-gradient-32" x1="799.01" y1="831.84" x2="839.95" y2="831.84" xlink:href="#linear-gradient"/><linearGradient id="linear-gradient-33" x1="772.3" y1="881.8" x2="813.22" y2="881.8" xlink:href="#linear-gradient"/><linearGradient id="linear-gradient-34" x1="736.37" y1="925.58" x2="777.29" y2="925.58" xlink:href="#linear-gradient"/><linearGradient id="linear-gradient-35" x1="692.58" y1="961.53" x2="733.52" y2="961.53" xlink:href="#linear-gradient"/><linearGradient id="linear-gradient-36" x1="642.6" y1="988.24" x2="683.54" y2="988.24" xlink:href="#linear-gradient"/><linearGradient id="linear-gradient-37" x1="588.41" y1="1004.68" x2="629.35" y2="1004.68" xlink:href="#linear-gradient"/><linearGradient id="linear-gradient-38" x1="532.01" y1="1010.23" x2="572.96" y2="1010.23" xlink:href="#linear-gradient"/><linearGradient id="linear-gradient-39" x1="475.64" y1="1004.68" x2="516.59" y2="1004.68" xlink:href="#linear-gradient"/><linearGradient id="linear-gradient-40" x1="421.43" y1="988.24" x2="462.38" y2="988.24" xlink:href="#linear-gradient"/><linearGradient id="linear-gradient-41" x1="371.48" y1="961.52" x2="412.42" y2="961.52" xlink:href="#linear-gradient"/><linearGradient id="linear-gradient-42" x1="327.68" y1="925.59" x2="368.62" y2="925.59" xlink:href="#linear-gradient"/><linearGradient id="linear-gradient-43" x1="291.74" y1="881.8" x2="332.66" y2="881.8" xlink:href="#linear-gradient"/><linearGradient id="linear-gradient-44" x1="265.04" y1="831.84" x2="305.98" y2="831.84" xlink:href="#linear-gradient"/><linearGradient id="linear-gradient-45" x1="248.6" y1="777.62" x2="289.53" y2="777.62" xlink:href="#linear-gradient"/><linearGradient id="linear-gradient-46" x1="243.05" y1="721.25" x2="283.97" y2="721.25" xlink:href="#linear-gradient"/><linearGradient id="linear-gradient-47" x1="248.6" y1="664.88" x2="289.53" y2="664.88" xlink:href="#linear-gradient"/><linearGradient id="linear-gradient-48" x1="265.04" y1="610.66" x2="305.98" y2="610.66" xlink:href="#linear-gradient"/><linearGradient id="linear-gradient-49" x1="291.74" y1="560.7" x2="332.66" y2="560.7" xlink:href="#linear-gradient"/><linearGradient id="linear-gradient-50" x1="327.68" y1="516.92" x2="368.62" y2="516.92" xlink:href="#linear-gradient"/><linearGradient id="linear-gradient-51" x1="371.48" y1="480.97" x2="412.42" y2="480.97" xlink:href="#linear-gradient"/><linearGradient id="linear-gradient-52" x1="421.43" y1="454.27" x2="462.38" y2="454.27" xlink:href="#linear-gradient"/><linearGradient id="linear-gradient-53" x1="475.64" y1="437.82" x2="516.59" y2="437.82" xlink:href="#linear-gradient"/><linearGradient id="linear-gradient-54" x1="532.01" y1="432.26" x2="572.96" y2="432.26" xlink:href="#linear-gradient"/><linearGradient id="linear-gradient-55" x1="588.41" y1="437.82" x2="629.35" y2="437.82" xlink:href="#linear-gradient"/><linearGradient id="linear-gradient-56" x1="642.6" y1="454.26" x2="683.54" y2="454.26" xlink:href="#linear-gradient"/><linearGradient id="linear-gradient-57" x1="692.58" y1="480.96" x2="733.52" y2="480.96" xlink:href="#linear-gradient"/><linearGradient id="linear-gradient-58" x1="736.37" y1="516.92" x2="777.29" y2="516.92" xlink:href="#linear-gradient"/><linearGradient id="linear-gradient-59" x1="772.3" y1="560.7" x2="813.22" y2="560.7" xlink:href="#linear-gradient"/><linearGradient id="linear-gradient-60" x1="799.01" y1="610.66" x2="839.95" y2="610.66" xlink:href="#linear-gradient"/><linearGradient id="linear-gradient-61" x1="815.44" y1="664.88" x2="856.39" y2="664.88" xlink:href="#linear-gradient"/><linearGradient id="linear-gradient-62" x1="869.17" y1="721.25" x2="910.1" y2="721.25" xlink:href="#linear-gradient"/><linearGradient id="linear-gradient-63" x1="861.8" y1="791.34" x2="902.74" y2="791.34" xlink:href="#linear-gradient"/><linearGradient id="linear-gradient-64" x1="840.02" y1="858.38" x2="880.96" y2="858.38" xlink:href="#linear-gradient"/><linearGradient id="linear-gradient-65" x1="804.78" y1="919.42" x2="845.72" y2="919.42" xlink:href="#linear-gradient"/><linearGradient id="linear-gradient-66" x1="757.61" y1="971.8" x2="798.55" y2="971.8" xlink:href="#linear-gradient"/><linearGradient id="linear-gradient-67" x1="700.58" y1="1013.22" x2="741.53" y2="1013.22" xlink:href="#linear-gradient"/><linearGradient id="linear-gradient-68" x1="636.21" y1="1041.9" x2="677.15" y2="1041.9" xlink:href="#linear-gradient"/><linearGradient id="linear-gradient-69" x1="567.25" y1="1056.54" x2="608.19" y2="1056.54" xlink:href="#linear-gradient"/><linearGradient id="linear-gradient-70" x1="496.77" y1="1056.55" x2="537.71" y2="1056.55" xlink:href="#linear-gradient"/><linearGradient id="linear-gradient-71" x1="427.83" y1="1041.9" x2="468.79" y2="1041.9" xlink:href="#linear-gradient"/><linearGradient id="linear-gradient-72" x1="363.45" y1="1013.22" x2="404.38" y2="1013.22" xlink:href="#linear-gradient"/><linearGradient id="linear-gradient-73" x1="306.42" y1="971.8" x2="347.36" y2="971.8" xlink:href="#linear-gradient"/><linearGradient id="linear-gradient-74" x1="259.25" y1="919.41" x2="300.22" y2="919.41" xlink:href="#linear-gradient"/><linearGradient id="linear-gradient-75" x1="224.01" y1="858.38" x2="264.96" y2="858.38" xlink:href="#linear-gradient"/><linearGradient id="linear-gradient-76" x1="202.23" y1="791.34" x2="243.19" y2="791.34" xlink:href="#linear-gradient"/><linearGradient id="linear-gradient-77" x1="194.87" y1="721.25" x2="235.82" y2="721.25" xlink:href="#linear-gradient"/><linearGradient id="linear-gradient-78" x1="202.23" y1="651.16" x2="243.19" y2="651.16" xlink:href="#linear-gradient"/><linearGradient id="linear-gradient-79" x1="224.01" y1="584.12" x2="264.96" y2="584.12" xlink:href="#linear-gradient"/><linearGradient id="linear-gradient-80" x1="259.25" y1="523.08" x2="300.22" y2="523.08" xlink:href="#linear-gradient"/><linearGradient id="linear-gradient-81" x1="306.42" y1="470.7" x2="347.36" y2="470.7" xlink:href="#linear-gradient"/><linearGradient id="linear-gradient-82" x1="363.45" y1="429.27" x2="404.38" y2="429.27" xlink:href="#linear-gradient"/><linearGradient id="linear-gradient-83" x1="427.83" y1="400.61" x2="468.79" y2="400.61" xlink:href="#linear-gradient"/><linearGradient id="linear-gradient-84" x1="496.77" y1="385.95" x2="537.71" y2="385.95" xlink:href="#linear-gradient"/><linearGradient id="linear-gradient-85" x1="567.25" y1="385.95" x2="608.19" y2="385.95" xlink:href="#linear-gradient"/><linearGradient id="linear-gradient-86" x1="636.21" y1="400.61" x2="677.15" y2="400.61" xlink:href="#linear-gradient"/><linearGradient id="linear-gradient-87" x1="700.58" y1="429.27" x2="741.53" y2="429.27" xlink:href="#linear-gradient"/><linearGradient id="linear-gradient-88" x1="757.61" y1="470.7" x2="798.55" y2="470.7" xlink:href="#linear-gradient"/><linearGradient id="linear-gradient-89" x1="804.78" y1="523.08" x2="845.72" y2="523.08" xlink:href="#linear-gradient"/><linearGradient id="linear-gradient-90" x1="840.02" y1="584.12" x2="880.96" y2="584.12" xlink:href="#linear-gradient"/><linearGradient id="linear-gradient-91" x1="861.8" y1="651.16" x2="902.74" y2="651.16" xlink:href="#linear-gradient"/><linearGradient id="linear-gradient-92" x1="917.33" y1="721.25" x2="958.28" y2="721.25" xlink:href="#linear-gradient"/><linearGradient id="linear-gradient-93" x1="804.46" y1="993.71" x2="845.43" y2="993.71" xlink:href="#linear-gradient"/><linearGradient id="linear-gradient-94" x1="532.01" y1="1106.56" x2="572.96" y2="1106.56" xlink:href="#linear-gradient"/><linearGradient id="linear-gradient-95" x1="259.57" y1="993.71" x2="300.51" y2="993.71" xlink:href="#linear-gradient"/><linearGradient id="linear-gradient-96" x1="146.72" y1="721.25" x2="187.64" y2="721.25" xlink:href="#linear-gradient"/><linearGradient id="linear-gradient-97" x1="259.57" y1="448.79" x2="300.51" y2="448.79" xlink:href="#linear-gradient"/><linearGradient id="linear-gradient-98" x1="532.01" y1="335.95" x2="572.96" y2="335.95" xlink:href="#linear-gradient"/><linearGradient id="linear-gradient-99" x1="804.46" y1="448.79" x2="845.43" y2="448.79" xlink:href="#linear-gradient"/><linearGradient id="linear-gradient-100" x1="98.54" y1="721.25" x2="139.49" y2="721.25" xlink:href="#linear-gradient"/><linearGradient id="linear-gradient-101" x1="555.59" y1="721.29" x2="692.84" y2="721.29" gradientTransform="matrix(1, 0, 0, 1, 0, 0)" xlink:href="#linear-gradient"/><linearGradient id="linear-gradient-102" x1="1450.2" y1="745.37" x2="1542.87" y2="745.37" gradientTransform="matrix(1, 0, 0, 1, 0, 0)" xlink:href="#linear-gradient"/><linearGradient id="linear-gradient-103" x1="1878.43" y1="745.77" x2="2023.23" y2="745.77" gradientTransform="matrix(1, 0, 0, 1, 0, 0)" xlink:href="#linear-gradient"/><linearGradient id="linear-gradient-104" x1="1820.02" y1="630.55" x2="1856.28" y2="630.55" gradientTransform="matrix(1, 0, 0, 1, 0, 0)" xlink:href="#linear-gradient"/><linearGradient id="linear-gradient-105" x1="1820.02" y1="745.75" x2="1856.48" y2="745.75" gradientTransform="matrix(1, 0, 0, 1, 0, 0)" xlink:href="#linear-gradient"/><linearGradient id="linear-gradient-106" x1="1143.37" y1="721.85" x2="1301.62" y2="721.85" gradientTransform="matrix(1, 0, 0, 1, 0, 0)" xlink:href="#linear-gradient"/><linearGradient id="linear-gradient-107" x1="1551.57" y1="745.88" x2="1802.18" y2="745.88" gradientTransform="matrix(1, 0, 0, 1, 0, 0)" xlink:href="#linear-gradient"/><linearGradient id="linear-gradient-108" x1="2043.39" y1="745.88" x2="2294" y2="745.88" gradientTransform="matrix(1, 0, 0, 1, 0, 0)" xlink:href="#linear-gradient"/><linearGradient id="linear-gradient-109" x1="1283.88" y1="746.1" x2="1434.41" y2="746.1" gradientTransform="matrix(1, 0, 0, 1, 0, 0)" xlink:href="#linear-gradient"/><linearGradient id="linear-gradient-110" x1="-108" y1="773" x2="2826" y2="773" gradientUnits="userSpaceOnUse"><stop offset="1" stop-opacity="0.5"/><stop offset="1" stop-color="#fff" stop-opacity="0.7"/></linearGradient></defs><rect class="cls-1" x="-37.83" y="-44.3" width="2643.46" height="1521.56" rx="46.77"/><path class="cls-2" d="M1015,702.72a18.46,18.46,0,1,0,18.44,18.45A18.48,18.48,0,0,0,1015,702.72Z"/><path class="cls-3" d="M772.92,721.17a18.45,18.45,0,1,0-18.45,18.46A18.48,18.48,0,0,0,772.92,721.17Z"/><path class="cls-4" d="M494,739.63a18.46,18.46,0,1,0-18.45-18.46A18.49,18.49,0,0,0,494,739.63Z"/><path class="cls-5" d="M816.35,721.17a18.46,18.46,0,1,0-18.47,18.46A18.48,18.48,0,0,0,816.35,721.17Z"/><path class="cls-6" d="M734,857a18.43,18.43,0,0,0,26.08,0A18.47,18.47,0,1,0,734,857Z"/><path class="cls-7" d="M624.22,913.31a18.46,18.46,0,1,0-18.46-18.46A18.48,18.48,0,0,0,624.22,913.31Z"/><path class="cls-8" d="M501.41,862.43a18.47,18.47,0,1,0-13-5.41A18.31,18.31,0,0,0,501.41,862.43Z"/><path class="cls-9" d="M469,721.17a18.46,18.46,0,1,0-18.46,18.46A18.47,18.47,0,0,0,469,721.17Z"/><path class="cls-10" d="M514.47,585.32a18.46,18.46,0,1,0-26.1,26.1,18.46,18.46,0,0,0,26.1-26.1Z"/><path class="cls-11" d="M624.22,529.07a18.44,18.44,0,1,0,18.45,18.44A18.46,18.46,0,0,0,624.22,529.07Z"/><path class="cls-12" d="M747,616.83a18.51,18.51,0,1,0-13-5.41A18.29,18.29,0,0,0,747,616.83Z"/><path class="cls-13" d="M841.31,702.72a18.46,18.46,0,1,0,18.46,18.45A18.48,18.48,0,0,0,841.31,702.72Z"/><path class="cls-14" d="M821.92,812.77a18.48,18.48,0,0,0,24.76-17.35,18.5,18.5,0,0,0-12.14-17.33,18.43,18.43,0,0,0-24.77,17.33A18.52,18.52,0,0,0,821.92,812.77Z"/><path class="cls-15" d="M792.14,879.11a18.47,18.47,0,1,0-13.48-4.26A18.4,18.4,0,0,0,792.14,879.11Z"/><path class="cls-16" d="M748.74,900a18.44,18.44,0,1,0,2.48,9.22A18.46,18.46,0,0,0,748.74,900Z"/><path class="cls-17" d="M665.12,953.14a18.45,18.45,0,1,0-21.65-18.2,18.66,18.66,0,0,0,.28,3.24A18.46,18.46,0,0,0,665.12,953.14Z"/><path class="cls-18" d="M583.31,953.14a18.48,18.48,0,0,0,21.4-15,19.66,19.66,0,0,0,.26-3.24,18.45,18.45,0,0,0-36.62-3.17,20.55,20.55,0,0,0-.27,3.21A18.41,18.41,0,0,0,583.31,953.14Z"/><path class="cls-19" d="M520.46,927a18.46,18.46,0,0,0,13.68-17.82,18.47,18.47,0,1,0-27.69,16A18.31,18.31,0,0,0,520.46,927Z"/><path class="cls-20" d="M469.79,874.85a18.44,18.44,0,1,0-26-2.27A18.48,18.48,0,0,0,469.79,874.85Z"/><path class="cls-21" d="M438.68,795.42a18.82,18.82,0,0,0-1.11-6.32,18.47,18.47,0,0,0-23.67-11,18.42,18.42,0,0,0-11,23.64,18.46,18.46,0,0,0,23.64,11A18.52,18.52,0,0,0,438.68,795.42Z"/><path class="cls-22" d="M407.12,702.72a18.46,18.46,0,1,0,18.47,18.45A18.49,18.49,0,0,0,407.12,702.72Z"/><path class="cls-23" d="M437.57,653.24a18.72,18.72,0,0,0,1.11-6.31,18.43,18.43,0,0,0-26.24-16.72,18.47,18.47,0,0,0-10.67,16.72,18.46,18.46,0,0,0,35.8,6.31Z"/><path class="cls-24" d="M472.06,593.49a18.45,18.45,0,1,0-32.58-11.87,18.45,18.45,0,0,0,32.58,11.87Z"/><path class="cls-25" d="M499.69,542.38a18.4,18.4,0,1,0-2.48-9.2A18.37,18.37,0,0,0,499.69,542.38Z"/><path class="cls-26" d="M597.11,492.27a18.45,18.45,0,0,0-29,15.1,20.25,20.25,0,0,0,.27,3.21A18.45,18.45,0,0,0,605,507.41a19.54,19.54,0,0,0-.26-3.23A18.34,18.34,0,0,0,597.11,492.27Z"/><path class="cls-27" d="M665.12,489.21a18.45,18.45,0,1,0-6.4,36.34,18.45,18.45,0,0,0,21.65-18.18A18.42,18.42,0,0,0,665.12,489.21Z"/><path class="cls-28" d="M716.79,524a18.44,18.44,0,0,0,20.75,27,18.5,18.5,0,0,0,13.68-17.81A18.45,18.45,0,0,0,716.79,524Z"/><path class="cls-29" d="M788.92,600a18.21,18.21,0,0,0,13.46-4.25A18.44,18.44,0,1,0,788.92,600Z"/><path class="cls-30" d="M809.77,646.93a18.24,18.24,0,0,0,1.11,6.31,18.47,18.47,0,1,0-1.11-6.31Z"/><path class="cls-31" d="M884.72,702.72a18.46,18.46,0,1,0,18.47,18.45A18.47,18.47,0,0,0,884.72,702.72Z"/><path class="cls-32" d="M897.82,775.59a18.19,18.19,0,0,0,.36-3.61,18.45,18.45,0,0,0-36.55-3.59,19.23,19.23,0,0,0-.37,3.61,18.46,18.46,0,0,0,36.56,3.59Z"/><path class="cls-33" d="M882,827.92a18.45,18.45,0,1,0-24.11,10A18.34,18.34,0,0,0,882,827.92Z"/><path class="cls-34" d="M830.57,881.26a18.46,18.46,0,0,0,25.59-5.11,18.22,18.22,0,0,0,3.1-10.24,18.44,18.44,0,1,0-28.69,15.35Z"/><path class="cls-35" d="M826.87,905.38a18.43,18.43,0,1,0-5.38,13A18.4,18.4,0,0,0,826.87,905.38Z"/><path class="cls-36" d="M779.21,953.12a18.45,18.45,0,0,0-6.65-33.44,18.47,18.47,0,0,0-22.06,18.11,18.45,18.45,0,0,0,28.71,15.33Z"/><path class="cls-37" d="M716.87,944.81a18.4,18.4,0,0,0-11.42,17.05,18.1,18.1,0,0,0,1.42,7.06,18.44,18.44,0,0,0,35.49-7.09,18.25,18.25,0,0,0-1.4-7A18.45,18.45,0,0,0,716.87,944.81Z"/><path class="cls-38" d="M671.46,958.59a18.45,18.45,0,0,0-14.86,18.07,19.31,19.31,0,0,0,.34,3.63,18.46,18.46,0,0,0,36.57-3.59,19.9,19.9,0,0,0-.36-3.61A18.46,18.46,0,0,0,671.46,958.59Z"/><path class="cls-39" d="M624.22,1000.14a18.46,18.46,0,1,0-18.46-18.45A18.46,18.46,0,0,0,624.22,1000.14Z"/><path class="cls-40" d="M591.49,980.29a17.82,17.82,0,0,0,.37-3.63A18.46,18.46,0,0,0,577,958.59a18.41,18.41,0,0,0-21.69,14.5,17.55,17.55,0,0,0-.37,3.61,18.48,18.48,0,0,0,14.86,18.08,18.45,18.45,0,0,0,21.69-14.49Z"/><path class="cls-41" d="M531.58,978.91a18.27,18.27,0,0,0,10-10,18.63,18.63,0,0,0,1.4-7.06,18.45,18.45,0,0,0-35.5-7.05,17.94,17.94,0,0,0-1.42,7.05,18.46,18.46,0,0,0,25.51,17Z"/><path class="cls-42" d="M489.74,922.44A18.45,18.45,0,0,0,461,937.77a18.46,18.46,0,1,0,28.7-15.33Z"/><path class="cls-43" d="M453.06,892.33a18.44,18.44,0,1,0,5.41,13A18.49,18.49,0,0,0,453.06,892.33Z"/><path class="cls-44" d="M417.87,881.26a18.45,18.45,0,1,0-25.6-5.11A18.46,18.46,0,0,0,417.87,881.26Z"/><path class="cls-45" d="M390.6,837.93a18.46,18.46,0,1,0-24.11-10A18.44,18.44,0,0,0,390.6,837.93Z"/><path class="cls-46" d="M372.31,790.09A18.48,18.48,0,0,0,387.17,772a17.7,17.7,0,0,0-.37-3.61A18.44,18.44,0,0,0,350.27,772a17.48,17.48,0,0,0,.37,3.61A18.44,18.44,0,0,0,372.31,790.09Z"/><path class="cls-47" d="M363.71,739.63a18.46,18.46,0,1,0-18.44-18.46A18.48,18.48,0,0,0,363.71,739.63Z"/><path class="cls-48" d="M350.64,666.76a17.55,17.55,0,0,0-.37,3.61A18.44,18.44,0,0,0,386.8,674a17.58,17.58,0,0,0,.37-3.62,18.44,18.44,0,0,0-36.53-3.57Z"/><path class="cls-49" d="M376.49,604.43a18.46,18.46,0,1,0,14.11,0A18.4,18.4,0,0,0,376.49,604.43Z"/><path class="cls-50" d="M417.87,561.1a18.5,18.5,0,1,0,8.18,15.36A18.48,18.48,0,0,0,417.87,561.1Z"/><path class="cls-51" d="M421.57,537A18.44,18.44,0,1,0,427,523.93,18.35,18.35,0,0,0,421.57,537Z"/><path class="cls-52" d="M469.22,489.23a18.45,18.45,0,1,0,13.87-2.76A18.45,18.45,0,0,0,469.22,489.23Z"/><path class="cls-53" d="M517.45,497.54a18.48,18.48,0,0,0,25.54-17,18.46,18.46,0,1,0-25.54,17Z"/><path class="cls-54" d="M563.15,481A18.23,18.23,0,0,0,577,483.77a18.48,18.48,0,0,0,14.86-18.07,17.75,17.75,0,0,0-.37-3.63,18.47,18.47,0,0,0-21.69-14.5,18.5,18.5,0,0,0-14.86,18.09,17.55,17.55,0,0,0,.37,3.61A18.24,18.24,0,0,0,563.15,481Z"/><path class="cls-55" d="M624.22,442.2a18.46,18.46,0,1,0,18.45,18.47A18.48,18.48,0,0,0,624.22,442.2Z"/><path class="cls-56" d="M656.94,462.07a19.24,19.24,0,0,0-.34,3.63,18.45,18.45,0,0,0,36.55,3.57,19.9,19.9,0,0,0,.36-3.61,18.46,18.46,0,0,0-36.57-3.59Z"/><path class="cls-57" d="M706.87,473.45a18,18,0,0,0-1.42,7.05,18.5,18.5,0,1,0,1.42-7.05Z"/><path class="cls-58" d="M758.71,519.91a18.43,18.43,0,1,0-8.21-15.34A18.46,18.46,0,0,0,758.71,519.91Z"/><path class="cls-59" d="M795.39,550a18.44,18.44,0,1,0-5.4-13A18.3,18.3,0,0,0,795.39,550Z"/><path class="cls-60" d="M830.57,561.1a18.46,18.46,0,1,0,28.69,15.32,18.22,18.22,0,0,0-3.1-10.22A18.46,18.46,0,0,0,830.57,561.1Z"/><path class="cls-61" d="M872,604.43a18.46,18.46,0,0,0-25.52,17.07,18.46,18.46,0,0,0,25.52,17,18.45,18.45,0,0,0,0-34.09Z"/><path class="cls-62" d="M861.26,670.33a19.08,19.08,0,0,0,.37,3.62,18.45,18.45,0,0,0,36.55-3.58,18.26,18.26,0,0,0-.36-3.61,18.46,18.46,0,0,0-36.56,3.57Z"/><path class="cls-63" d="M928.15,702.72a18.46,18.46,0,1,0,18.44,18.45A18.48,18.48,0,0,0,928.15,702.72Z"/><path class="cls-64" d="M925.33,766.31a18.44,18.44,0,0,0-21.87,14.22,19.21,19.21,0,0,0-.4,3.85,18.46,18.46,0,0,0,28.51,15.46,18.32,18.32,0,0,0,8-11.64,17.81,17.81,0,0,0,.42-3.85A18.54,18.54,0,0,0,925.33,766.31Z"/><path class="cls-65" d="M909.38,827.94A18.49,18.49,0,0,0,885,837.28a18.46,18.46,0,1,0,35.31,7.52A18.46,18.46,0,0,0,909.38,827.94Z"/><path class="cls-66" d="M880.94,884.88a18.45,18.45,0,0,0-21.68,29.86A18.48,18.48,0,0,0,885,910.66a18.45,18.45,0,0,0-4.1-25.78Z"/><path class="cls-67" d="M815.23,933.32a18.43,18.43,0,0,0-1.34,26.06,18.49,18.49,0,0,0,26,1.38,18.46,18.46,0,0,0-24.7-27.44Z"/><path class="cls-68" d="M781,966.56a18.29,18.29,0,0,0-14,1.83,18.45,18.45,0,1,0,25.22,6.77A18.41,18.41,0,0,0,781,966.56Z"/><path class="cls-69" d="M712.44,992.68a18.39,18.39,0,0,0-12.75,17.54,18,18,0,0,0,.91,5.7,18.45,18.45,0,1,0,11.84-23.24Z"/><path class="cls-70" d="M654.07,1005.08a18.43,18.43,0,0,0-16.54,18.35,17.84,17.84,0,0,0,.11,1.93,18.46,18.46,0,1,0,16.43-20.28Z"/><path class="cls-71" d="M610.81,1025.36c.06-.65.09-1.28.09-1.93a18.45,18.45,0,0,0-36.79-1.93,18.69,18.69,0,0,0-.11,2,18.46,18.46,0,0,0,36.81,1.9Z"/><path class="cls-72" d="M536,992.68a18.49,18.49,0,0,0-23.26,11.85,18.74,18.74,0,0,0-.91,5.71A18.46,18.46,0,1,0,536,992.68Z"/><path class="cls-73" d="M481.49,968.39a18.48,18.48,0,1,0,9.22,16A18.55,18.55,0,0,0,481.49,968.39Z"/><path class="cls-74" d="M407.14,934.7A18.34,18.34,0,0,0,402.4,947a18.56,18.56,0,0,0,6.1,13.72A18.47,18.47,0,0,0,439.31,947a18.45,18.45,0,0,0-32.17-12.34Z"/><path class="cls-75" d="M375.45,918a18.27,18.27,0,0,0,13.76-3.29,18.55,18.55,0,0,0,7.6-14.93A18.25,18.25,0,0,0,393.27,889a18.45,18.45,0,1,0-17.82,29Z"/><path class="cls-76" d="M365,844.78a18.46,18.46,0,1,0-10.94,16.85A18.4,18.4,0,0,0,365,844.78Z"/><path class="cls-77" d="M345.4,784.38a19.22,19.22,0,0,0-.41-3.85,18.41,18.41,0,1,0,.41,3.85Z"/><path class="cls-78" d="M338.75,721.17a18.46,18.46,0,1,0-18.45,18.46A18.48,18.48,0,0,0,338.75,721.17Z"/><path class="cls-79" d="M323.1,676A18.5,18.5,0,0,0,345,661.83a19.16,19.16,0,0,0,.41-3.86A18.47,18.47,0,1,0,323.1,676Z"/><path class="cls-80" d="M339.07,614.41a18.45,18.45,0,0,0,24.36-9.35,18.26,18.26,0,0,0,1.59-7.49,18.47,18.47,0,0,0-10.94-16.87,18.49,18.49,0,0,0-24.37,9.35,18.4,18.4,0,0,0,9.36,24.36Z"/><path class="cls-81" d="M367.49,557.47a18.46,18.46,0,1,0,8-33.17,18.56,18.56,0,0,0-15.57,18.22A18.57,18.57,0,0,0,367.49,557.47Z"/><path class="cls-82" d="M433.2,509a18.45,18.45,0,0,0-11.37-32.14,18.27,18.27,0,0,0-13.33,4.72A18.45,18.45,0,0,0,433.2,509Z"/><path class="cls-83" d="M481.49,474a18.59,18.59,0,0,0,9.22-16,18.44,18.44,0,1,0-9.22,16Z"/><path class="cls-84" d="M524.6,414.58a18.41,18.41,0,0,0-12.76,17.54,18.82,18.82,0,0,0,.91,5.7,18.45,18.45,0,1,0,11.85-23.24Z"/><path class="cls-85" d="M594.39,437.28a18.42,18.42,0,0,0,16.51-18.35c0-.65,0-1.31-.09-2a18.45,18.45,0,1,0-16.42,20.31Z"/><path class="cls-86" d="M637.64,417a18.45,18.45,0,1,0,20.28-16.42A18.39,18.39,0,0,0,637.64,417Z"/><path class="cls-87" d="M712.44,449.68a18.45,18.45,0,1,0-11.84-23.25,18.05,18.05,0,0,0-.91,5.71A18.4,18.4,0,0,0,712.44,449.68Z"/><path class="cls-88" d="M767,474a18.46,18.46,0,0,0,18.45-32,18.49,18.49,0,0,0-25.22,6.77A18.45,18.45,0,0,0,767,474Z"/><path class="cls-89" d="M841.29,507.66A18.45,18.45,0,1,0,815.23,509,18.39,18.39,0,0,0,841.29,507.66Z"/><path class="cls-90" d="M873,524.3a18.48,18.48,0,1,0,12,7.4A18.38,18.38,0,0,0,873,524.3Z"/><path class="cls-91" d="M883.42,597.57a18.11,18.11,0,0,0,1.6,7.49,18.45,18.45,0,1,0,23.46-24.72,18.2,18.2,0,0,0-14.1.36A18.46,18.46,0,0,0,883.42,597.57Z"/><path class="cls-92" d="M903.06,658a19.31,19.31,0,0,0,.4,3.86A18.45,18.45,0,0,0,940,658a17.76,17.76,0,0,0-.42-3.86,18.4,18.4,0,0,0-21.86-14.21A18.52,18.52,0,0,0,903.06,658Z"/><path class="cls-93" d="M971.56,702.72A18.46,18.46,0,1,0,990,721.17,18.48,18.48,0,0,0,971.56,702.72Z"/><path class="cls-94" d="M856.77,953.72a18.46,18.46,0,1,0,26.1,26.11,18.43,18.43,0,0,0,0-26.11A18.52,18.52,0,0,0,856.77,953.72Z"/><path class="cls-95" d="M624.22,1050.08a18.45,18.45,0,1,0,18.45,18.45A18.48,18.48,0,0,0,624.22,1050.08Z"/><path class="cls-96" d="M365.57,953.72a18.45,18.45,0,1,0,26.1,0A18.37,18.37,0,0,0,365.57,953.72Z"/><path class="cls-97" d="M276.87,702.72a18.46,18.46,0,1,0,18.45,18.45A18.47,18.47,0,0,0,276.87,702.72Z"/><path class="cls-98" d="M378.61,494a18.44,18.44,0,1,0-13-5.39A18.39,18.39,0,0,0,378.61,494Z"/><path class="cls-99" d="M624.22,392.28a18.45,18.45,0,1,0-18.46-18.45A18.46,18.46,0,0,0,624.22,392.28Z"/><path class="cls-100" d="M869.83,494a18.44,18.44,0,0,0,13-31.5,18.46,18.46,0,1,0-13,31.5Z"/><path class="cls-101" d="M233.47,702.72a18.46,18.46,0,1,0,18.44,18.45A18.47,18.47,0,0,0,233.47,702.72Z"/><path class="cls-102" d="M585.88,690.13V655.59h107V626.12H640.52c-15.63,0-31.26-.13-46.9-.1-5.44,0-12.34-.4-17.47.46-9,1.53-16.33,8.8-19.19,17.51-1.47,4.51-1.37,9.55-1.37,14.27q0,15.71,0,31.4v127h30.24V745.73h0v-4.54h0v-12.8h9.36l9.39,0,10.49,0c2.85,0,5.71-.07,8.56,0,3,0,6.05-.07,9,0,1.32,0,2.68,0,4,0,5.46.09,10.75.24,15.82-2a26.7,26.7,0,0,0,15.66-21.31,28.53,28.53,0,0,0,.17-3.06,23.16,23.16,0,0,0-.14-2.65H585.88v-9.23Z"/><path class="cls-103" d="M1450.2,742.72c1.26-54.46,30.24-81.54,86.61-81.54h6.06v36.49h-15.51c-23.56,0-40.68,19.89-40.68,44.42v87.46H1450.2Z"/><path class="cls-104" d="M2018.11,661.94a34,34,0,0,0-33.72,29.38,65,65,0,0,0-.33,9.16q0,5.67,0,11.35v48a33.26,33.26,0,0,1-66.5,0V662.36h-39.15s0,97.43,0,97.43a72.43,72.43,0,0,0,144.76,0V661.94Z"/><path class="cls-105" d="M1825.92,613.4a30.12,30.12,0,0,0-5.9.6v33.69h36a30,30,0,0,0,.27-3.94A30.36,30.36,0,0,0,1825.92,613.4Z"/><path class="cls-106" d="M1856.46,692.52a35.17,35.17,0,0,0-.9-7.72c-.13-.54-.28-1.07-.44-1.59A30.52,30.52,0,0,0,1826,661.94a32.13,32.13,0,0,0-6,.56v167h36.39V714.85q0-7.68,0-15.37C1856.44,697.17,1856.51,694.84,1856.46,692.52Z"/><path class="cls-107" d="M1178.3,685.92V646.1h123.32v-34H1241.3c-18,0-36-.35-54.09-.12-6.6.09-13.69-.49-20.14.54-10.45,1.66-18.83,10.14-22.12,20.18-1.7,5.2-1.58,11-1.58,16.45q0,18.12.06,36.21V831.79h34.87V750h0V744.8h0V730h10.79l10.82,0,12.09,0c3.29,0,6.59-.07,9.88,0,3.46,0,7-.08,10.42,0,1.52,0,3.09,0,4.61,0,6.29.1,12.4.27,18.24-2.33a28.43,28.43,0,0,0,3-1.54,30.79,30.79,0,0,0,15-23,31.67,31.67,0,0,0,.2-3.52,28.24,28.24,0,0,0-.16-3.06h-95V685.92Z"/><path class="cls-108" d="M1802.14,732a72.36,72.36,0,0,0-125.25-46.79A72.37,72.37,0,0,0,1551.62,732h0v97.6h39.15V732a33.27,33.27,0,0,1,66.53.48h0v97.1h39.15v-97.1h0A33.28,33.28,0,0,1,1763,732h0v62.3a37.84,37.84,0,0,0,37.75,35.38c.46,0,.93,0,1.41-.08V732Z"/><path class="cls-109" d="M2294,732a72.36,72.36,0,0,0-125.25-46.79A72.37,72.37,0,0,0,2043.44,732h0v97.6h39.15V732a33.27,33.27,0,0,1,66.53.48h.06v97.1h39.15v-97.1h0a33.28,33.28,0,0,1,66.56-.5h0v62.3a37.83,37.83,0,0,0,37.74,35.38c.45,0,.93,0,1.41-.08V732Z"/><path class="cls-110" d="M1413.93,758.92a20.47,20.47,0,0,0,20.43-19.46c.07-1.24,0-2.47,0-3.71a79.65,79.65,0,0,0-1.2-13.18,73.84,73.84,0,0,0-2.79-10.32,75.31,75.31,0,0,0-62.16-50.08,78.21,78.21,0,0,0-9-.53,75.39,75.39,0,0,0-75,68.25l-.26,13.24v15.79a77.5,77.5,0,0,0,5.91,25.42,76.38,76.38,0,0,0,140.35,0H1389A35,35,0,0,1,1325,764.75c0-2,.2-3.93.2-5.83Zm-54.74-64.41a33.31,33.31,0,0,1,33.3,33.29,28,28,0,0,1-.25,3.68h-67.06a34.3,34.3,0,0,1-.22-3.68C1325,709.43,1340.8,694.51,1359.19,694.51Z"/><rect class="cls-111" x="-108" y="-143" width="2934" height="1832"/></svg>