<svg id="Layer_1" data-name="Layer 1" xmlns="http://www.w3.org/2000/svg" xmlns:xlink="http://www.w3.org/1999/xlink" viewBox="0 0 70.87 63.34"><defs><style>.cls-1{fill:url(#linear-gradient);}.cls-2{fill:url(#linear-gradient-2);}.cls-3{fill:url(#linear-gradient-3);}.cls-4{fill:url(#linear-gradient-4);}.cls-5{fill:url(#linear-gradient-5);}.cls-6{fill:url(#linear-gradient-6);}.cls-7{fill:url(#linear-gradient-7);}.cls-8{fill:url(#linear-gradient-8);}.cls-9{fill:url(#linear-gradient-9);}.cls-10{fill:url(#linear-gradient-10);}.cls-11{fill:url(#linear-gradient-11);}.cls-12{fill:url(#linear-gradient-12);}.cls-13{fill:url(#linear-gradient-13);}.cls-14{fill:url(#linear-gradient-14);}.cls-15{fill:url(#linear-gradient-15);}.cls-16{fill:url(#linear-gradient-16);}.cls-17{fill:url(#linear-gradient-17);}.cls-18{fill:url(#linear-gradient-18);}.cls-19{fill:url(#linear-gradient-19);}.cls-20{fill:url(#linear-gradient-20);}.cls-21{fill:url(#linear-gradient-21);}.cls-22{fill:url(#linear-gradient-22);}.cls-23{fill:url(#linear-gradient-23);}.cls-24{fill:url(#linear-gradient-24);}.cls-25{fill:url(#linear-gradient-25);}.cls-26{fill:url(#linear-gradient-26);}.cls-27{fill:url(#linear-gradient-27);}.cls-28{fill:url(#linear-gradient-28);}.cls-29{fill:url(#linear-gradient-29);}.cls-30{fill:url(#linear-gradient-30);}.cls-31{fill:url(#linear-gradient-31);}.cls-32{fill:url(#linear-gradient-32);}.cls-33{fill:url(#linear-gradient-33);}.cls-34{fill:url(#linear-gradient-34);}.cls-35{fill:url(#linear-gradient-35);}.cls-36{fill:url(#linear-gradient-36);}.cls-37{fill:url(#linear-gradient-37);}.cls-38{fill:url(#linear-gradient-38);}.cls-39{fill:url(#linear-gradient-39);}.cls-40{fill:url(#linear-gradient-40);}.cls-41{fill:url(#linear-gradient-41);}.cls-42{fill:url(#linear-gradient-42);}.cls-43{fill:url(#linear-gradient-43);}.cls-44{fill:url(#linear-gradient-44);}.cls-45{fill:url(#linear-gradient-45);}.cls-46{fill:url(#linear-gradient-46);}.cls-47{fill:url(#linear-gradient-47);}.cls-48{fill:url(#linear-gradient-48);}.cls-49{fill:url(#linear-gradient-49);}.cls-50{fill:url(#linear-gradient-50);}.cls-51{fill:url(#linear-gradient-51);}.cls-52{fill:url(#linear-gradient-52);}.cls-53{fill:url(#linear-gradient-53);}.cls-54{fill:url(#linear-gradient-54);}.cls-55{fill:url(#linear-gradient-55);}.cls-56{fill:url(#linear-gradient-56);}.cls-57{fill:url(#linear-gradient-57);}.cls-58{fill:url(#linear-gradient-58);}.cls-59{fill:url(#linear-gradient-59);}.cls-60{fill:url(#linear-gradient-60);}.cls-61{fill:url(#linear-gradient-61);}.cls-62{fill:url(#linear-gradient-62);}.cls-63{fill:url(#linear-gradient-63);}.cls-64{fill:url(#linear-gradient-64);}.cls-65{fill:url(#linear-gradient-65);}.cls-66{fill:url(#linear-gradient-66);}.cls-67{fill:url(#linear-gradient-67);}.cls-68{fill:url(#linear-gradient-68);}.cls-69{fill:url(#linear-gradient-69);}.cls-70{fill:url(#linear-gradient-70);}.cls-71{fill:url(#linear-gradient-71);}.cls-72{fill:url(#linear-gradient-72);}.cls-73{fill:url(#linear-gradient-73);}.cls-74{fill:url(#linear-gradient-74);}.cls-75{fill:url(#linear-gradient-75);}.cls-76{fill:url(#linear-gradient-76);}.cls-77{fill:url(#linear-gradient-77);}.cls-78{fill:url(#linear-gradient-78);}.cls-79{fill:url(#linear-gradient-79);}.cls-80{fill:url(#linear-gradient-80);}.cls-81{fill:url(#linear-gradient-81);}.cls-82{fill:url(#linear-gradient-82);}.cls-83{fill:url(#linear-gradient-83);}.cls-84{fill:url(#linear-gradient-84);}.cls-85{fill:url(#linear-gradient-85);}.cls-86{fill:url(#linear-gradient-86);}.cls-87{fill:url(#linear-gradient-87);}.cls-88{fill:url(#linear-gradient-88);}.cls-89{fill:url(#linear-gradient-89);}.cls-90{fill:url(#linear-gradient-90);}.cls-91{fill:url(#linear-gradient-91);}.cls-92{fill:url(#linear-gradient-92);}.cls-93{fill:url(#linear-gradient-93);}.cls-94{fill:url(#linear-gradient-94);}.cls-95{fill:url(#linear-gradient-95);}.cls-96{fill:url(#linear-gradient-96);}.cls-97{fill:url(#linear-gradient-97);}.cls-98{fill:url(#linear-gradient-98);}.cls-99{fill:url(#linear-gradient-99);}.cls-100{fill:url(#linear-gradient-100);}.cls-101{fill:url(#linear-gradient-101);}</style><linearGradient id="linear-gradient" x1="45.11" y1="31.67" x2="48.31" y2="31.67" gradientUnits="userSpaceOnUse"><stop offset="1" stop-color="#fff"/><stop offset="1"/></linearGradient><linearGradient id="linear-gradient-2" x1="22.56" y1="31.67" x2="25.75" y2="31.67" xlink:href="#linear-gradient"/><linearGradient id="linear-gradient-3" x1="48.87" y1="31.67" x2="52.07" y2="31.67" xlink:href="#linear-gradient"/><linearGradient id="linear-gradient-4" x1="44.47" y1="42.31" x2="47.66" y2="42.31" xlink:href="#linear-gradient"/><linearGradient id="linear-gradient-5" x1="33.84" y1="46.71" x2="37.03" y2="46.71" xlink:href="#linear-gradient"/><linearGradient id="linear-gradient-6" x1="23.2" y1="42.31" x2="26.4" y2="42.31" xlink:href="#linear-gradient"/><linearGradient id="linear-gradient-7" x1="18.8" y1="31.67" x2="21.99" y2="31.67" xlink:href="#linear-gradient"/><linearGradient id="linear-gradient-8" x1="23.2" y1="21.04" x2="26.4" y2="21.04" xlink:href="#linear-gradient"/><linearGradient id="linear-gradient-9" x1="33.84" y1="16.63" x2="37.03" y2="16.63" xlink:href="#linear-gradient"/><linearGradient id="linear-gradient-10" x1="44.47" y1="21.04" x2="47.66" y2="21.04" xlink:href="#linear-gradient"/><linearGradient id="linear-gradient-11" x1="52.63" y1="31.67" x2="55.83" y2="31.67" xlink:href="#linear-gradient"/><linearGradient id="linear-gradient-12" x1="51.5" y1="38.1" x2="54.7" y2="38.1" xlink:href="#linear-gradient"/><linearGradient id="linear-gradient-13" x1="48.23" y1="43.75" x2="51.43" y2="43.75" xlink:href="#linear-gradient"/><linearGradient id="linear-gradient-14" x1="43.23" y1="47.95" x2="46.43" y2="47.95" xlink:href="#linear-gradient"/><linearGradient id="linear-gradient-15" x1="37.1" y1="50.18" x2="40.3" y2="50.18" xlink:href="#linear-gradient"/><linearGradient id="linear-gradient-16" x1="30.57" y1="50.18" x2="33.77" y2="50.18" xlink:href="#linear-gradient"/><linearGradient id="linear-gradient-17" x1="24.44" y1="47.95" x2="27.63" y2="47.95" xlink:href="#linear-gradient"/><linearGradient id="linear-gradient-18" x1="19.44" y1="43.75" x2="22.63" y2="43.75" xlink:href="#linear-gradient"/><linearGradient id="linear-gradient-19" x1="16.17" y1="38.1" x2="19.37" y2="38.1" xlink:href="#linear-gradient"/><linearGradient id="linear-gradient-20" x1="15.04" y1="31.67" x2="18.23" y2="31.67" xlink:href="#linear-gradient"/><linearGradient id="linear-gradient-21" x1="16.17" y1="25.24" x2="19.37" y2="25.24" xlink:href="#linear-gradient"/><linearGradient id="linear-gradient-22" x1="19.44" y1="19.59" x2="22.63" y2="19.59" xlink:href="#linear-gradient"/><linearGradient id="linear-gradient-23" x1="24.44" y1="15.39" x2="27.63" y2="15.39" xlink:href="#linear-gradient"/><linearGradient id="linear-gradient-24" x1="30.57" y1="13.16" x2="33.77" y2="13.16" xlink:href="#linear-gradient"/><linearGradient id="linear-gradient-25" x1="37.1" y1="13.16" x2="40.3" y2="13.16" xlink:href="#linear-gradient"/><linearGradient id="linear-gradient-26" x1="43.23" y1="15.39" x2="46.43" y2="15.39" xlink:href="#linear-gradient"/><linearGradient id="linear-gradient-27" x1="48.23" y1="19.59" x2="51.43" y2="19.59" xlink:href="#linear-gradient"/><linearGradient id="linear-gradient-28" x1="51.5" y1="25.24" x2="54.7" y2="25.24" xlink:href="#linear-gradient"/><linearGradient id="linear-gradient-29" x1="56.39" y1="31.67" x2="59.59" y2="31.67" xlink:href="#linear-gradient"/><linearGradient id="linear-gradient-30" x1="55.96" y1="36.07" x2="59.15" y2="36.07" xlink:href="#linear-gradient"/><linearGradient id="linear-gradient-31" x1="54.68" y1="40.3" x2="57.87" y2="40.3" xlink:href="#linear-gradient"/><linearGradient id="linear-gradient-32" x1="52.59" y1="44.2" x2="55.79" y2="44.2" xlink:href="#linear-gradient"/><linearGradient id="linear-gradient-33" x1="49.79" y1="47.62" x2="52.98" y2="47.62" xlink:href="#linear-gradient"/><linearGradient id="linear-gradient-34" x1="46.37" y1="50.43" x2="49.56" y2="50.43" xlink:href="#linear-gradient"/><linearGradient id="linear-gradient-35" x1="42.47" y1="52.51" x2="45.66" y2="52.51" xlink:href="#linear-gradient"/><linearGradient id="linear-gradient-36" x1="38.24" y1="53.8" x2="41.43" y2="53.8" xlink:href="#linear-gradient"/><linearGradient id="linear-gradient-37" x1="33.84" y1="54.23" x2="37.03" y2="54.23" xlink:href="#linear-gradient"/><linearGradient id="linear-gradient-38" x1="29.43" y1="53.8" x2="32.63" y2="53.8" xlink:href="#linear-gradient"/><linearGradient id="linear-gradient-39" x1="25.2" y1="52.51" x2="28.4" y2="52.51" xlink:href="#linear-gradient"/><linearGradient id="linear-gradient-40" x1="21.3" y1="50.43" x2="24.5" y2="50.43" xlink:href="#linear-gradient"/><linearGradient id="linear-gradient-41" x1="17.89" y1="47.62" x2="21.08" y2="47.62" xlink:href="#linear-gradient"/><linearGradient id="linear-gradient-42" x1="15.08" y1="44.2" x2="18.28" y2="44.2" xlink:href="#linear-gradient"/><linearGradient id="linear-gradient-43" x1="13" y1="40.3" x2="16.19" y2="40.3" xlink:href="#linear-gradient"/><linearGradient id="linear-gradient-44" x1="11.71" y1="36.07" x2="14.91" y2="36.07" xlink:href="#linear-gradient"/><linearGradient id="linear-gradient-45" x1="11.28" y1="31.67" x2="14.47" y2="31.67" xlink:href="#linear-gradient"/><linearGradient id="linear-gradient-46" x1="11.71" y1="27.27" x2="14.91" y2="27.27" xlink:href="#linear-gradient"/><linearGradient id="linear-gradient-47" x1="13" y1="23.04" x2="16.19" y2="23.04" xlink:href="#linear-gradient"/><linearGradient id="linear-gradient-48" x1="15.08" y1="19.14" x2="18.28" y2="19.14" xlink:href="#linear-gradient"/><linearGradient id="linear-gradient-49" x1="17.89" y1="15.72" x2="21.08" y2="15.72" xlink:href="#linear-gradient"/><linearGradient id="linear-gradient-50" x1="21.3" y1="12.92" x2="24.5" y2="12.92" xlink:href="#linear-gradient"/><linearGradient id="linear-gradient-51" x1="25.2" y1="10.83" x2="28.4" y2="10.83" xlink:href="#linear-gradient"/><linearGradient id="linear-gradient-52" x1="29.43" y1="9.55" x2="32.63" y2="9.55" xlink:href="#linear-gradient"/><linearGradient id="linear-gradient-53" x1="33.84" y1="9.12" x2="37.03" y2="9.12" xlink:href="#linear-gradient"/><linearGradient id="linear-gradient-54" x1="38.24" y1="9.55" x2="41.43" y2="9.55" xlink:href="#linear-gradient"/><linearGradient id="linear-gradient-55" x1="42.47" y1="10.83" x2="45.66" y2="10.83" xlink:href="#linear-gradient"/><linearGradient id="linear-gradient-56" x1="46.37" y1="12.92" x2="49.56" y2="12.92" xlink:href="#linear-gradient"/><linearGradient id="linear-gradient-57" x1="49.79" y1="15.72" x2="52.98" y2="15.72" xlink:href="#linear-gradient"/><linearGradient id="linear-gradient-58" x1="52.59" y1="19.14" x2="55.79" y2="19.14" xlink:href="#linear-gradient"/><linearGradient id="linear-gradient-59" x1="54.68" y1="23.04" x2="57.87" y2="23.04" xlink:href="#linear-gradient"/><linearGradient id="linear-gradient-60" x1="55.96" y1="27.27" x2="59.15" y2="27.27" xlink:href="#linear-gradient"/><linearGradient id="linear-gradient-61" x1="60.15" y1="31.67" x2="63.35" y2="31.67" xlink:href="#linear-gradient"/><linearGradient id="linear-gradient-62" x1="59.58" y1="37.14" x2="62.77" y2="37.14" xlink:href="#linear-gradient"/><linearGradient id="linear-gradient-63" x1="57.88" y1="42.38" x2="61.07" y2="42.38" xlink:href="#linear-gradient"/><linearGradient id="linear-gradient-64" x1="55.13" y1="47.14" x2="58.32" y2="47.14" xlink:href="#linear-gradient"/><linearGradient id="linear-gradient-65" x1="51.44" y1="51.23" x2="54.64" y2="51.23" xlink:href="#linear-gradient"/><linearGradient id="linear-gradient-66" x1="46.99" y1="54.46" x2="50.19" y2="54.46" xlink:href="#linear-gradient"/><linearGradient id="linear-gradient-67" x1="41.97" y1="56.7" x2="45.16" y2="56.7" xlink:href="#linear-gradient"/><linearGradient id="linear-gradient-68" x1="36.59" y1="57.84" x2="39.78" y2="57.84" xlink:href="#linear-gradient"/><linearGradient id="linear-gradient-69" x1="31.08" y1="57.84" x2="34.28" y2="57.84" xlink:href="#linear-gradient"/><linearGradient id="linear-gradient-70" x1="25.7" y1="56.7" x2="28.9" y2="56.7" xlink:href="#linear-gradient"/><linearGradient id="linear-gradient-71" x1="20.68" y1="54.46" x2="23.87" y2="54.46" xlink:href="#linear-gradient"/><linearGradient id="linear-gradient-72" x1="16.23" y1="51.23" x2="19.42" y2="51.23" xlink:href="#linear-gradient"/><linearGradient id="linear-gradient-73" x1="12.54" y1="47.14" x2="15.74" y2="47.14" xlink:href="#linear-gradient"/><linearGradient id="linear-gradient-74" x1="9.79" y1="42.38" x2="12.99" y2="42.38" xlink:href="#linear-gradient"/><linearGradient id="linear-gradient-75" x1="8.09" y1="37.14" x2="11.29" y2="37.14" xlink:href="#linear-gradient"/><linearGradient id="linear-gradient-76" x1="7.52" y1="31.67" x2="10.71" y2="31.67" xlink:href="#linear-gradient"/><linearGradient id="linear-gradient-77" x1="8.09" y1="26.2" x2="11.29" y2="26.2" xlink:href="#linear-gradient"/><linearGradient id="linear-gradient-78" x1="9.79" y1="20.97" x2="12.99" y2="20.97" xlink:href="#linear-gradient"/><linearGradient id="linear-gradient-79" x1="12.54" y1="16.2" x2="15.74" y2="16.2" xlink:href="#linear-gradient"/><linearGradient id="linear-gradient-80" x1="16.23" y1="12.11" x2="19.42" y2="12.11" xlink:href="#linear-gradient"/><linearGradient id="linear-gradient-81" x1="20.68" y1="8.88" x2="23.87" y2="8.88" xlink:href="#linear-gradient"/><linearGradient id="linear-gradient-82" x1="25.7" y1="6.64" x2="28.9" y2="6.64" xlink:href="#linear-gradient"/><linearGradient id="linear-gradient-83" x1="31.08" y1="5.5" x2="34.28" y2="5.5" xlink:href="#linear-gradient"/><linearGradient id="linear-gradient-84" x1="36.59" y1="5.5" x2="39.78" y2="5.5" xlink:href="#linear-gradient"/><linearGradient id="linear-gradient-85" x1="41.97" y1="6.64" x2="45.16" y2="6.64" xlink:href="#linear-gradient"/><linearGradient id="linear-gradient-86" x1="46.99" y1="8.88" x2="50.19" y2="8.88" xlink:href="#linear-gradient"/><linearGradient id="linear-gradient-87" x1="51.44" y1="12.11" x2="54.64" y2="12.11" xlink:href="#linear-gradient"/><linearGradient id="linear-gradient-88" x1="55.13" y1="16.2" x2="58.32" y2="16.2" xlink:href="#linear-gradient"/><linearGradient id="linear-gradient-89" x1="57.88" y1="20.97" x2="61.07" y2="20.97" xlink:href="#linear-gradient"/><linearGradient id="linear-gradient-90" x1="59.58" y1="26.2" x2="62.77" y2="26.2" xlink:href="#linear-gradient"/><linearGradient id="linear-gradient-91" x1="63.91" y1="31.67" x2="67.11" y2="31.67" xlink:href="#linear-gradient"/><linearGradient id="linear-gradient-92" x1="55.1" y1="52.94" x2="58.3" y2="52.94" xlink:href="#linear-gradient"/><linearGradient id="linear-gradient-93" x1="33.84" y1="61.75" x2="37.03" y2="61.75" xlink:href="#linear-gradient"/><linearGradient id="linear-gradient-94" x1="12.57" y1="52.94" x2="15.76" y2="52.94" xlink:href="#linear-gradient"/><linearGradient id="linear-gradient-95" x1="3.76" y1="31.67" x2="6.95" y2="31.67" xlink:href="#linear-gradient"/><linearGradient id="linear-gradient-96" x1="12.57" y1="10.4" x2="15.76" y2="10.4" xlink:href="#linear-gradient"/><linearGradient id="linear-gradient-97" x1="33.84" y1="1.6" x2="37.03" y2="1.6" xlink:href="#linear-gradient"/><linearGradient id="linear-gradient-98" x1="55.1" y1="10.4" x2="58.3" y2="10.4" xlink:href="#linear-gradient"/><linearGradient id="linear-gradient-99" x1="67.67" y1="31.67" x2="70.87" y2="31.67" xlink:href="#linear-gradient"/><linearGradient id="linear-gradient-100" x1="0" y1="31.67" x2="3.2" y2="31.67" xlink:href="#linear-gradient"/><linearGradient id="linear-gradient-101" x1="29.37" y1="31.67" x2="41.5" y2="31.67" xlink:href="#linear-gradient"/></defs><path class="cls-1" d="M48.31,31.67a1.6,1.6,0,1,0-1.6,1.6A1.6,1.6,0,0,0,48.31,31.67Z"/><path class="cls-2" d="M24.15,33.27a1.6,1.6,0,1,0-1.59-1.6A1.6,1.6,0,0,0,24.15,33.27Z"/><path class="cls-3" d="M52.07,31.67a1.6,1.6,0,1,0-1.6,1.6A1.6,1.6,0,0,0,52.07,31.67Z"/><path class="cls-4" d="M44.94,43.44a1.59,1.59,0,0,0,2.72-1.13,1.59,1.59,0,0,0-1.59-1.6,1.6,1.6,0,0,0-1.6,1.6A1.58,1.58,0,0,0,44.94,43.44Z"/><path class="cls-5" d="M35.43,48.31a1.6,1.6,0,1,0-1.59-1.6A1.6,1.6,0,0,0,35.43,48.31Z"/><path class="cls-6" d="M24.8,43.9a1.58,1.58,0,0,0,1.13-.46,1.62,1.62,0,0,0,.47-1.13,1.59,1.59,0,0,0-.47-1.13,1.59,1.59,0,0,0-2.26,0,1.59,1.59,0,0,0-.47,1.13,1.62,1.62,0,0,0,.47,1.13A1.58,1.58,0,0,0,24.8,43.9Z"/><path class="cls-7" d="M22,31.67a1.6,1.6,0,1,0-1.59,1.6A1.6,1.6,0,0,0,22,31.67Z"/><path class="cls-8" d="M25.93,19.91a1.61,1.61,0,0,0-2.26,0,1.6,1.6,0,1,0,2.26,0Z"/><path class="cls-9" d="M35.43,15A1.6,1.6,0,1,0,37,16.63,1.59,1.59,0,0,0,35.43,15Z"/><path class="cls-10" d="M46.07,22.64a1.61,1.61,0,0,0,1.13-.47,1.62,1.62,0,0,0,0-2.26,1.61,1.61,0,0,0-2.26,0,1.59,1.59,0,0,0,0,2.26A1.59,1.59,0,0,0,46.07,22.64Z"/><path class="cls-11" d="M54.23,30.07a1.6,1.6,0,1,0,1.6,1.6A1.6,1.6,0,0,0,54.23,30.07Z"/><path class="cls-12" d="M52.55,39.6a1.57,1.57,0,0,0,1.22-.05,1.6,1.6,0,0,0,.83-.9,1.72,1.72,0,0,0,.1-.55,1.61,1.61,0,0,0-1.06-1.5,1.58,1.58,0,0,0-2,.95,1.52,1.52,0,0,0-.1.55A1.6,1.6,0,0,0,52.55,39.6Z"/><path class="cls-13" d="M50,45.35a1.6,1.6,0,0,0,.89-2.82,1.65,1.65,0,0,0-1.17-.37A1.6,1.6,0,0,0,50,45.35Z"/><path class="cls-14" d="M46.22,47.15a1.6,1.6,0,1,0-2.77,1.6,1.57,1.57,0,0,0,1,.74,1.56,1.56,0,0,0,1.21-.16,1.6,1.6,0,0,0,.8-1.38A1.62,1.62,0,0,0,46.22,47.15Z"/><path class="cls-15" d="M39,51.76a1.61,1.61,0,0,0,1.33-1.57,1.27,1.27,0,0,0,0-.28,1.6,1.6,0,0,0-3.17.27,2.46,2.46,0,0,0,0,.28A1.61,1.61,0,0,0,39,51.76Z"/><path class="cls-16" d="M31.89,51.76a1.6,1.6,0,0,0,1.2-.27,1.55,1.55,0,0,0,.65-1,1.27,1.27,0,0,0,0-.28,1.61,1.61,0,0,0-1.32-1.57,1.59,1.59,0,0,0-1.86,1.3,2.46,2.46,0,0,0,0,.28A1.61,1.61,0,0,0,31.89,51.76Z"/><path class="cls-17" d="M26.45,49.49a1.57,1.57,0,0,0,1-.74,1.59,1.59,0,0,0,.21-.8,1.58,1.58,0,0,0-.8-1.38,1.6,1.6,0,0,0-2.18.58,1.62,1.62,0,0,0-.21.8,1.58,1.58,0,0,0,.8,1.38A1.55,1.55,0,0,0,26.45,49.49Z"/><path class="cls-18" d="M22.06,45a1.61,1.61,0,0,0,.57-1.23,1.58,1.58,0,0,0-.37-1,1.61,1.61,0,0,0-1.09-.57,1.62,1.62,0,0,0-1.16.37,1.58,1.58,0,0,0-.57,1.23A1.59,1.59,0,0,0,22.06,45Z"/><path class="cls-19" d="M19.37,38.1a1.52,1.52,0,0,0-.1-.55,1.59,1.59,0,0,0-2.05-.95,1.6,1.6,0,0,0-1,1.5,1.72,1.72,0,0,0,.1.55,1.59,1.59,0,0,0,2.05,1A1.6,1.6,0,0,0,19.37,38.1Z"/><path class="cls-20" d="M16.64,30.07a1.6,1.6,0,1,0,1.59,1.6A1.6,1.6,0,0,0,16.64,30.07Z"/><path class="cls-21" d="M19.27,25.79a1.49,1.49,0,0,0,.1-.55,1.6,1.6,0,0,0-1.05-1.5,1.64,1.64,0,0,0-1.23.06,1.58,1.58,0,0,0-.82.9,1.66,1.66,0,0,0-.1.54,1.6,1.6,0,0,0,3.1.55Z"/><path class="cls-22" d="M22.26,20.62a1.61,1.61,0,0,0,.37-1,1.63,1.63,0,0,0-.57-1.23,1.59,1.59,0,0,0-2.62,1.23A1.56,1.56,0,0,0,20,20.81a1.54,1.54,0,0,0,1.16.37A1.64,1.64,0,0,0,22.26,20.62Z"/><path class="cls-23" d="M24.65,16.19a1.6,1.6,0,0,0,3-.8,1.62,1.62,0,0,0-.21-.8A1.6,1.6,0,0,0,25.24,14a1.6,1.6,0,0,0-.59,2.18Z"/><path class="cls-24" d="M33.09,11.85a1.61,1.61,0,0,0-2.52,1.31,2.64,2.64,0,0,0,0,.28,1.62,1.62,0,0,0,.66,1,1.61,1.61,0,0,0,2.52-1.31,1.41,1.41,0,0,0,0-.28A1.57,1.57,0,0,0,33.09,11.85Z"/><path class="cls-25" d="M39,11.59a1.58,1.58,0,0,0-1.19.26,1.62,1.62,0,0,0-.66,1c0,.1,0,.19,0,.28a1.61,1.61,0,0,0,2.52,1.31,1.61,1.61,0,0,0,.65-1,1.33,1.33,0,0,0,0-.28A1.59,1.59,0,0,0,39,11.59Z"/><path class="cls-26" d="M43.45,14.59A1.59,1.59,0,0,0,44,16.78a1.6,1.6,0,0,0,2.19-.59,1.58,1.58,0,0,0,.21-.79,1.6,1.6,0,0,0-3-.81Z"/><path class="cls-27" d="M49.69,21.18a1.56,1.56,0,0,0,1.17-.37A1.59,1.59,0,0,0,50,18a1.57,1.57,0,0,0-1.16.36,1.6,1.6,0,0,0,.88,2.82Z"/><path class="cls-28" d="M51.5,25.24a1.49,1.49,0,0,0,.1.55,1.6,1.6,0,0,0,3.1-.55,1.66,1.66,0,0,0-.1-.54,1.6,1.6,0,0,0-3.1.54Z"/><path class="cls-29" d="M58,30.07a1.6,1.6,0,1,0,1.6,1.6A1.6,1.6,0,0,0,58,30.07Z"/><path class="cls-30" d="M59.12,36.38a1.55,1.55,0,0,0,0-.31A1.6,1.6,0,0,0,56,35.76a1.63,1.63,0,0,0,0,.31,1.59,1.59,0,0,0,3.16.31Z"/><path class="cls-31" d="M57.75,40.92a1.67,1.67,0,0,0,.12-.62,1.6,1.6,0,0,0-2.21-1.47,1.58,1.58,0,0,0-.86.86,1.62,1.62,0,0,0-.12.61,1.6,1.6,0,0,0,3.07.62Z"/><path class="cls-32" d="M53.3,45.53a1.61,1.61,0,0,0,2.22-.44,1.63,1.63,0,0,0,.27-.89,1.6,1.6,0,0,0-2.93-.88,1.55,1.55,0,0,0-.27.88A1.59,1.59,0,0,0,53.3,45.53Z"/><path class="cls-33" d="M53,47.62a1.56,1.56,0,0,0-.47-1.13,1.59,1.59,0,0,0-2.72,1.13,1.59,1.59,0,0,0,2.72,1.13A1.55,1.55,0,0,0,53,47.62Z"/><path class="cls-34" d="M48.85,51.76a1.59,1.59,0,0,0,.71-1.33,1.6,1.6,0,0,0-1.28-1.57,1.6,1.6,0,0,0-1.64,2.46,1.65,1.65,0,0,0,1,.68A1.63,1.63,0,0,0,48.85,51.76Z"/><path class="cls-35" d="M43.45,51a1.6,1.6,0,0,0-.86,2.08,1.59,1.59,0,0,0,3.07-.61,1.62,1.62,0,0,0-.12-.61A1.6,1.6,0,0,0,43.45,51Z"/><path class="cls-36" d="M39.52,52.23a1.6,1.6,0,0,0-1.28,1.56,1.73,1.73,0,0,0,0,.32,1.6,1.6,0,0,0,3.16-.31,1.73,1.73,0,0,0,0-.32A1.6,1.6,0,0,0,39.52,52.23Z"/><path class="cls-37" d="M35.43,55.83a1.6,1.6,0,1,0-1.59-1.6A1.6,1.6,0,0,0,35.43,55.83Z"/><path class="cls-38" d="M32.6,54.11a1.73,1.73,0,0,0,0-.32,1.6,1.6,0,0,0-2.49-1.32,1.57,1.57,0,0,0-.67,1,1.17,1.17,0,0,0,0,.32,1.6,1.6,0,0,0,1.29,1.56,1.54,1.54,0,0,0,1.2-.24A1.52,1.52,0,0,0,32.6,54.11Z"/><path class="cls-39" d="M26.19,54a1.61,1.61,0,0,0,1.22,0,1.59,1.59,0,0,0,0-3,1.52,1.52,0,0,0-1.22,0,1.58,1.58,0,0,0-.86.86,1.46,1.46,0,0,0-.13.61A1.6,1.6,0,0,0,26.19,54Z"/><path class="cls-40" d="M23.79,49.1a1.6,1.6,0,0,0-2.22.44A1.6,1.6,0,0,0,22,51.76a1.6,1.6,0,0,0,2.22-.44,1.58,1.58,0,0,0,.27-.89A1.61,1.61,0,0,0,23.79,49.1Z"/><path class="cls-41" d="M20.61,46.49a1.59,1.59,0,0,0-2.72,1.13,1.6,1.6,0,0,0,3.19,0A1.61,1.61,0,0,0,20.61,46.49Z"/><path class="cls-42" d="M17.57,45.53a1.59,1.59,0,0,0,.71-1.33,1.63,1.63,0,0,0-.27-.88,1.6,1.6,0,0,0-2.93.88,1.56,1.56,0,0,0,.27.89A1.6,1.6,0,0,0,17.57,45.53Z"/><path class="cls-43" d="M15.2,41.78a1.6,1.6,0,0,0,1-1.48,1.62,1.62,0,0,0-.12-.61,1.56,1.56,0,0,0-.87-.86,1.61,1.61,0,0,0-1.22,0,1.59,1.59,0,0,0-1,1.47,1.67,1.67,0,0,0,.12.62A1.59,1.59,0,0,0,15.2,41.78Z"/><path class="cls-44" d="M13.62,37.64a1.6,1.6,0,0,0,1.29-1.57,1.63,1.63,0,0,0,0-.31,1.6,1.6,0,0,0-3.17.31,1.55,1.55,0,0,0,0,.31A1.6,1.6,0,0,0,13.62,37.64Z"/><path class="cls-45" d="M12.88,33.27a1.6,1.6,0,1,0-1.6-1.6A1.6,1.6,0,0,0,12.88,33.27Z"/><path class="cls-46" d="M11.74,27a1.63,1.63,0,0,0,0,.31,1.6,1.6,0,0,0,3.17.31,1.63,1.63,0,0,0,0-.31A1.6,1.6,0,0,0,11.74,27Z"/><path class="cls-47" d="M14,21.56a1.63,1.63,0,0,0-.86.87A1.61,1.61,0,0,0,14,24.52a1.61,1.61,0,0,0,1.22,0,1.6,1.6,0,0,0,1-1.48A1.6,1.6,0,0,0,14,21.56Z"/><path class="cls-48" d="M17.57,17.81a1.6,1.6,0,0,0-2.22.44,1.58,1.58,0,0,0-.27.89A1.6,1.6,0,0,0,18,20a1.66,1.66,0,0,0,.27-.89A1.62,1.62,0,0,0,17.57,17.81Z"/><path class="cls-49" d="M17.89,15.72a1.58,1.58,0,0,0,.46,1.13,1.61,1.61,0,0,0,1.13.47,1.6,1.6,0,0,0,1.13-2.73,1.61,1.61,0,0,0-2.26,0A1.58,1.58,0,0,0,17.89,15.72Z"/><path class="cls-50" d="M22,11.59a1.59,1.59,0,0,0-.71,1.33,1.69,1.69,0,0,0,.27.89,1.62,1.62,0,0,0,2.22.44,1.62,1.62,0,0,0,.71-1.33,1.56,1.56,0,0,0-.27-.89A1.6,1.6,0,0,0,22,11.59Z"/><path class="cls-51" d="M26.19,12.31a1.6,1.6,0,1,0,0-3,1.59,1.59,0,0,0-.87,2.08A1.65,1.65,0,0,0,26.19,12.31Z"/><path class="cls-52" d="M30.14,10.88a1.61,1.61,0,0,0,2.49-1.33,1.63,1.63,0,0,0,0-.31,1.57,1.57,0,0,0-.68-1A1.59,1.59,0,0,0,30.72,8a1.61,1.61,0,0,0-1.29,1.57,1.1,1.1,0,0,0,0,.31A1.59,1.59,0,0,0,30.14,10.88Z"/><path class="cls-53" d="M35.43,7.52A1.6,1.6,0,1,0,37,9.12,1.59,1.59,0,0,0,35.43,7.52Z"/><path class="cls-54" d="M38.27,9.24a1.63,1.63,0,0,0,0,.31,1.6,1.6,0,0,0,3.16.31,1.63,1.63,0,0,0,0-.31,1.59,1.59,0,0,0-3.16-.31Z"/><path class="cls-55" d="M44.68,9.36a1.6,1.6,0,0,0-2.09.86,1.62,1.62,0,0,0-.12.61,1.6,1.6,0,1,0,3.19,0A1.57,1.57,0,0,0,44.68,9.36Z"/><path class="cls-56" d="M47.08,14.25a1.6,1.6,0,0,0,2.48-1.33,1.57,1.57,0,0,0-.71-1.33,1.59,1.59,0,0,0-2.21.44,1.56,1.56,0,0,0-.27.89A1.59,1.59,0,0,0,47.08,14.25Z"/><path class="cls-57" d="M50.25,16.85a1.62,1.62,0,0,0,1.13.47,1.59,1.59,0,0,0,1.13-.47,1.59,1.59,0,0,0,0-2.26,1.61,1.61,0,0,0-2.26,0,1.62,1.62,0,0,0,0,2.26Z"/><path class="cls-58" d="M53.3,17.81a1.61,1.61,0,0,0-.71,1.33,1.56,1.56,0,0,0,.27.89,1.6,1.6,0,0,0,2.93-.89,1.66,1.66,0,0,0-.27-.89A1.61,1.61,0,0,0,53.3,17.81Z"/><path class="cls-59" d="M56.88,21.56a1.61,1.61,0,0,0-1.22,0,1.61,1.61,0,0,0,0,3A1.6,1.6,0,0,0,57.87,23a1.58,1.58,0,0,0-.12-.61A1.61,1.61,0,0,0,56.88,21.56Z"/><path class="cls-60" d="M56,27.27a1.63,1.63,0,0,0,0,.31,1.59,1.59,0,0,0,3.16-.31,1.63,1.63,0,0,0,0-.31,1.6,1.6,0,0,0-3.16.31Z"/><path class="cls-61" d="M61.75,30.07a1.6,1.6,0,1,0,1.6,1.6A1.6,1.6,0,0,0,61.75,30.07Z"/><path class="cls-62" d="M61.51,35.58a1.61,1.61,0,0,0-1.21.22,1.64,1.64,0,0,0-.69,1,1.84,1.84,0,0,0,0,.33,1.6,1.6,0,0,0,3.16.34,2,2,0,0,0,0-.34A1.6,1.6,0,0,0,61.51,35.58Z"/><path class="cls-63" d="M60.13,40.92a1.59,1.59,0,0,0-2.11.81,1.42,1.42,0,0,0-.14.64,1.59,1.59,0,0,0,3,.66,1.49,1.49,0,0,0,.14-.65A1.6,1.6,0,0,0,60.13,40.92Z"/><path class="cls-64" d="M57.66,45.85a1.59,1.59,0,0,0-2.53,1.29,1.58,1.58,0,0,0,.66,1.29,1.55,1.55,0,0,0,1.18.29A1.62,1.62,0,0,0,58,48.08a1.6,1.6,0,0,0-.36-2.23Z"/><path class="cls-65" d="M52,50a1.63,1.63,0,0,0-.53,1.19,1.57,1.57,0,0,0,.42,1.07,1.61,1.61,0,0,0,2.25.12A1.6,1.6,0,1,0,52,50Z"/><path class="cls-66" d="M49,52.92a1.6,1.6,0,1,0,.39,2.93,1.63,1.63,0,0,0,.8-1.39,1.73,1.73,0,0,0-.21-.8A1.59,1.59,0,0,0,49,52.92Z"/><path class="cls-67" d="M43.07,55.18A1.6,1.6,0,0,0,42,56.7a1.36,1.36,0,0,0,.08.49,1.59,1.59,0,0,0,3.11-.49,1.58,1.58,0,0,0-2.09-1.52Z"/><path class="cls-68" d="M38,56.25a1.59,1.59,0,0,0-1.43,1.59V58a1.6,1.6,0,0,0,1.76,1.42,1.58,1.58,0,0,0,1.43-1.58.91.91,0,0,0,0-.17A1.6,1.6,0,0,0,38,56.25Z"/><path class="cls-69" d="M34.27,58a.91.91,0,0,0,0-.17,1.6,1.6,0,0,0-1.43-1.59,1.65,1.65,0,0,0-1.17.35,1.63,1.63,0,0,0-.59,1.08s0,.11,0,.17a1.61,1.61,0,0,0,2.61,1.24A1.57,1.57,0,0,0,34.27,58Z"/><path class="cls-70" d="M27.79,55.18a1.6,1.6,0,0,0-2,1,1.62,1.62,0,0,0-.08.49,1.6,1.6,0,0,0,3.12.49,1.62,1.62,0,0,0,.08-.49A1.6,1.6,0,0,0,27.79,55.18Z"/><path class="cls-71" d="M23.07,53.08a1.6,1.6,0,0,0-2.18.58,1.62,1.62,0,0,0-.21.8,1.6,1.6,0,0,0,3,.8,1.6,1.6,0,0,0-.59-2.18Z"/><path class="cls-72" d="M16.64,50.16a1.56,1.56,0,0,0-.41,1.07,1.62,1.62,0,0,0,.52,1.19,1.59,1.59,0,0,0,1.16.4,1.59,1.59,0,0,0,1.51-1.59,1.59,1.59,0,0,0-2.78-1.07Z"/><path class="cls-73" d="M13.89,48.72a1.58,1.58,0,0,0,1.19-.29,1.6,1.6,0,0,0,.36-2.23,1.6,1.6,0,0,0-2.24-.35,1.6,1.6,0,0,0,.69,2.87Z"/><path class="cls-74" d="M12.85,41.73a1.6,1.6,0,0,0-3.06.65,1.65,1.65,0,0,0,.14.65A1.6,1.6,0,0,0,13,42.37,1.57,1.57,0,0,0,12.85,41.73Z"/><path class="cls-75" d="M11.29,37.14a1.84,1.84,0,0,0,0-.33,1.6,1.6,0,0,0-3.17.33,2,2,0,0,0,0,.34,1.58,1.58,0,0,0,.69,1,1.59,1.59,0,0,0,2.47-1.34Z"/><path class="cls-76" d="M10.71,31.67a1.6,1.6,0,1,0-1.59,1.6A1.6,1.6,0,0,0,10.71,31.67Z"/><path class="cls-77" d="M9.36,27.76a1.6,1.6,0,0,0,1.9-1.23,1.84,1.84,0,0,0,0-.33,1.6,1.6,0,0,0-3.16-.33,1.86,1.86,0,0,0,0,.33A1.59,1.59,0,0,0,9.36,27.76Z"/><path class="cls-78" d="M10.74,22.43a1.6,1.6,0,0,0,2.11-.81A1.65,1.65,0,0,0,13,21a1.6,1.6,0,0,0-1-1.46,1.52,1.52,0,0,0-1.22,0,1.6,1.6,0,0,0-1,1.49A1.62,1.62,0,0,0,10.74,22.43Z"/><path class="cls-79" d="M13.2,17.5a1.61,1.61,0,0,0,2.24-.36,1.57,1.57,0,0,0,.3-.94,1.62,1.62,0,0,0-.66-1.29,1.61,1.61,0,0,0-2.23.35,1.6,1.6,0,0,0-.31.94A1.62,1.62,0,0,0,13.2,17.5Z"/><path class="cls-80" d="M18.89,13.3a1.6,1.6,0,0,0-1-2.78,1.59,1.59,0,0,0-1.68,1.6,1.55,1.55,0,0,0,.41,1.06A1.59,1.59,0,0,0,18.89,13.3Z"/><path class="cls-81" d="M23.07,10.27a1.6,1.6,0,0,0,.8-1.39,1.62,1.62,0,0,0-.21-.8,1.57,1.57,0,0,0-1-.74,1.56,1.56,0,0,0-1.21.16,1.58,1.58,0,0,0-.8,1.38,1.59,1.59,0,0,0,2.39,1.39Z"/><path class="cls-82" d="M26.81,5.12A1.61,1.61,0,0,0,25.7,6.64a1.69,1.69,0,0,0,.08.5,1.6,1.6,0,0,0,2,1A1.58,1.58,0,0,0,28.9,6.64a1.67,1.67,0,0,0-.08-.49A1.6,1.6,0,0,0,26.81,5.12Z"/><path class="cls-83" d="M32.85,7.09A1.6,1.6,0,0,0,34.28,5.5a1,1,0,0,0,0-.17,1.57,1.57,0,0,0-.58-1.07A1.6,1.6,0,0,0,31.08,5.5c0,.06,0,.11,0,.17A1.61,1.61,0,0,0,32.85,7.09Z"/><path class="cls-84" d="M36.59,5.33V5.5a1.59,1.59,0,0,0,3.18.17,1,1,0,0,0,0-.17,1.59,1.59,0,0,0-1.43-1.59A1.62,1.62,0,0,0,36.59,5.33Z"/><path class="cls-85" d="M43.07,8.16a1.61,1.61,0,0,0,2-1,1.68,1.68,0,0,0,.07-.5,1.59,1.59,0,0,0-3.11-.49,1.4,1.4,0,0,0-.08.49A1.58,1.58,0,0,0,43.07,8.16Z"/><path class="cls-86" d="M47.79,10.27A1.61,1.61,0,0,0,50,9.68a1.7,1.7,0,0,0,.21-.8,1.6,1.6,0,0,0-.8-1.38,1.56,1.56,0,0,0-1.21-.16,1.57,1.57,0,0,0-1,.74,1.59,1.59,0,0,0,.58,2.19Z"/><path class="cls-87" d="M54.23,13.18a1.6,1.6,0,0,0,.41-1.06,1.58,1.58,0,0,0-.53-1.19,1.61,1.61,0,0,0-2.67,1.19,1.6,1.6,0,0,0,2.79,1.06Z"/><path class="cls-88" d="M57,14.63a1.55,1.55,0,0,0-1.18.28,1.59,1.59,0,0,0-.66,1.29,1.57,1.57,0,0,0,.3.94A1.6,1.6,0,0,0,58,15.26,1.56,1.56,0,0,0,57,14.63Z"/><path class="cls-89" d="M58,21.62a1.59,1.59,0,0,0,3-.65,1.44,1.44,0,0,0-.14-.65,1.55,1.55,0,0,0-.88-.84,1.52,1.52,0,0,0-1.22,0A1.6,1.6,0,0,0,57.88,21,1.49,1.49,0,0,0,58,21.62Z"/><path class="cls-90" d="M59.58,26.2a1.84,1.84,0,0,0,0,.33,1.6,1.6,0,0,0,3.16-.33,1.84,1.84,0,0,0,0-.33,1.6,1.6,0,0,0-3.16.33Z"/><path class="cls-91" d="M65.51,30.07a1.6,1.6,0,1,0,1.6,1.6A1.6,1.6,0,0,0,65.51,30.07Z"/><path class="cls-92" d="M55.57,51.81a1.59,1.59,0,0,0,0,2.26,1.61,1.61,0,0,0,2.26,0,1.59,1.59,0,0,0,0-2.26A1.61,1.61,0,0,0,55.57,51.81Z"/><path class="cls-93" d="M35.43,60.15a1.6,1.6,0,1,0,1.6,1.6A1.6,1.6,0,0,0,35.43,60.15Z"/><path class="cls-94" d="M13,51.81a1.59,1.59,0,0,0,0,2.26,1.61,1.61,0,0,0,2.26,0,1.62,1.62,0,0,0,0-2.26A1.61,1.61,0,0,0,13,51.81Z"/><path class="cls-95" d="M5.36,30.07A1.6,1.6,0,1,0,7,31.67,1.6,1.6,0,0,0,5.36,30.07Z"/><path class="cls-96" d="M14.17,12A1.6,1.6,0,1,0,13,9.27,1.6,1.6,0,0,0,14.17,12Z"/><path class="cls-97" d="M35.43,3.19A1.6,1.6,0,1,0,33.84,1.6,1.6,1.6,0,0,0,35.43,3.19Z"/><path class="cls-98" d="M56.7,12a1.58,1.58,0,0,0,1.13-.46,1.61,1.61,0,0,0,0-2.27,1.61,1.61,0,0,0-2.26,0,1.61,1.61,0,0,0,0,2.27A1.58,1.58,0,0,0,56.7,12Z"/><path class="cls-99" d="M69.27,30.07a1.6,1.6,0,1,0,1.6,1.6A1.6,1.6,0,0,0,69.27,30.07Z"/><path class="cls-100" d="M1.6,30.07a1.6,1.6,0,1,0,1.6,1.6A1.6,1.6,0,0,0,1.6,30.07Z"/><path class="cls-101" d="M32,28.92V25.86H41.5v-2.6H32.73a10,10,0,0,0-1.55,0,2.25,2.25,0,0,0-1.69,1.55,4.09,4.09,0,0,0-.12,1.26v14H32V33.83h0v-.4h0V32.3h2.59c.25,0,.5,0,.76,0s.53,0,.8,0h.35a3.17,3.17,0,0,0,1.4-.18,1.27,1.27,0,0,0,.23-.12,2.3,2.3,0,0,0,1.15-1.76,2.45,2.45,0,0,0,0-.27,1.94,1.94,0,0,0,0-.24H32v-.81Z"/></svg>