<svg id="Layer_1" data-name="Layer 1" xmlns="http://www.w3.org/2000/svg" xmlns:xlink="http://www.w3.org/1999/xlink" viewBox="0 0 70.87 24.94"><defs><style>.cls-1{fill:url(#radial-gradient);}.cls-2{fill:url(#radial-gradient-2);}.cls-3{fill:url(#radial-gradient-3);}.cls-4{fill:url(#radial-gradient-4);}.cls-5{fill:url(#radial-gradient-5);}.cls-6{fill:url(#radial-gradient-6);}.cls-7{fill:url(#radial-gradient-8);}.cls-8{fill:url(#radial-gradient-9);}.cls-9{fill:url(#radial-gradient-10);}.cls-10{fill:url(#radial-gradient-13);}.cls-11{fill:url(#radial-gradient-14);}.cls-12{fill:url(#radial-gradient-16);}.cls-13{fill:url(#radial-gradient-20);}.cls-14{fill:url(#radial-gradient-23);}.cls-15{fill:url(#radial-gradient-25);}.cls-16{fill:url(#radial-gradient-26);}.cls-17{fill:url(#radial-gradient-28);}.cls-18{fill:url(#radial-gradient-31);}.cls-19{fill:url(#radial-gradient-33);}.cls-20{fill:url(#radial-gradient-39);}.cls-21{fill:url(#radial-gradient-42);}.cls-22{fill:url(#radial-gradient-44);}.cls-23{fill:url(#radial-gradient-46);}.cls-24{fill:url(#radial-gradient-47);}.cls-25{fill:url(#radial-gradient-50);}.cls-26{fill:url(#radial-gradient-52);}.cls-27{fill:url(#radial-gradient-55);}.cls-28{fill:url(#radial-gradient-57);}.cls-29{fill:url(#radial-gradient-61);}.cls-30{fill:url(#radial-gradient-63);}.cls-31{fill:url(#radial-gradient-64);}.cls-32{fill:url(#radial-gradient-68);}.cls-33{fill:url(#radial-gradient-69);}.cls-34{fill:url(#radial-gradient-72);}.cls-35{fill:url(#radial-gradient-75);}.cls-36{fill:url(#radial-gradient-78);}.cls-37{fill:url(#radial-gradient-81);}.cls-38{fill:url(#radial-gradient-83);}.cls-39{fill:url(#radial-gradient-84);}.cls-40{fill:url(#radial-gradient-88);}.cls-41{fill:url(#radial-gradient-90);}.cls-42{fill:url(#radial-gradient-91);}.cls-43{fill:url(#radial-gradient-96);}.cls-44{fill:url(#radial-gradient-100);}.cls-45{fill:#ea2c4c;}</style><radialGradient id="radial-gradient" cx="11.45" cy="2.46" r="13.53" gradientTransform="translate(3.51 10.19) scale(0.9)" gradientUnits="userSpaceOnUse"><stop offset="0" stop-color="#e92c4a"/><stop offset="0.39" stop-color="#ed4b41"/><stop offset="0.76" stop-color="#f0623b"/><stop offset="1" stop-color="#f16a39"/></radialGradient><radialGradient id="radial-gradient-2" cx="11.45" cy="2.46" r="13.53" xlink:href="#radial-gradient"/><radialGradient id="radial-gradient-3" cx="11.45" cy="2.46" r="13.53" xlink:href="#radial-gradient"/><radialGradient id="radial-gradient-4" cx="11.45" cy="2.46" r="13.53" xlink:href="#radial-gradient"/><radialGradient id="radial-gradient-5" cx="11.45" cy="2.46" r="13.53" xlink:href="#radial-gradient"/><radialGradient id="radial-gradient-6" cx="11.45" cy="2.46" r="13.53" xlink:href="#radial-gradient"/><radialGradient id="radial-gradient-8" cx="11.45" cy="2.46" r="13.53" xlink:href="#radial-gradient"/><radialGradient id="radial-gradient-9" cx="11.45" cy="2.46" r="13.53" xlink:href="#radial-gradient"/><radialGradient id="radial-gradient-10" cx="11.45" cy="2.46" r="13.53" xlink:href="#radial-gradient"/><radialGradient id="radial-gradient-13" cx="11.45" cy="2.46" r="13.53" xlink:href="#radial-gradient"/><radialGradient id="radial-gradient-14" cx="11.45" cy="2.46" r="13.53" xlink:href="#radial-gradient"/><radialGradient id="radial-gradient-16" cx="11.45" cy="2.46" r="13.53" xlink:href="#radial-gradient"/><radialGradient id="radial-gradient-20" cx="11.45" cy="2.46" r="13.53" xlink:href="#radial-gradient"/><radialGradient id="radial-gradient-23" cx="11.45" cy="2.46" r="13.53" xlink:href="#radial-gradient"/><radialGradient id="radial-gradient-25" cx="11.45" cy="2.46" r="13.53" xlink:href="#radial-gradient"/><radialGradient id="radial-gradient-26" cx="11.45" cy="2.46" r="13.53" xlink:href="#radial-gradient"/><radialGradient id="radial-gradient-28" cx="11.45" cy="2.46" r="13.53" xlink:href="#radial-gradient"/><radialGradient id="radial-gradient-31" cx="11.45" cy="2.46" r="13.53" xlink:href="#radial-gradient"/><radialGradient id="radial-gradient-33" cx="11.45" cy="2.46" r="13.53" xlink:href="#radial-gradient"/><radialGradient id="radial-gradient-39" cx="11.45" cy="2.46" r="13.53" xlink:href="#radial-gradient"/><radialGradient id="radial-gradient-42" cx="11.45" cy="2.46" r="13.53" xlink:href="#radial-gradient"/><radialGradient id="radial-gradient-44" cx="11.45" cy="2.46" r="13.53" xlink:href="#radial-gradient"/><radialGradient id="radial-gradient-46" cx="11.45" cy="2.46" r="13.53" xlink:href="#radial-gradient"/><radialGradient id="radial-gradient-47" cx="11.45" cy="2.46" r="13.53" xlink:href="#radial-gradient"/><radialGradient id="radial-gradient-50" cx="11.45" cy="2.46" r="13.53" xlink:href="#radial-gradient"/><radialGradient id="radial-gradient-52" cx="11.45" cy="2.46" r="13.53" xlink:href="#radial-gradient"/><radialGradient id="radial-gradient-55" cx="11.45" cy="2.46" r="13.53" xlink:href="#radial-gradient"/><radialGradient id="radial-gradient-57" cx="11.45" cy="2.46" r="13.53" xlink:href="#radial-gradient"/><radialGradient id="radial-gradient-61" cx="11.45" cy="2.46" r="13.53" xlink:href="#radial-gradient"/><radialGradient id="radial-gradient-63" cx="11.45" cy="2.46" r="13.53" xlink:href="#radial-gradient"/><radialGradient id="radial-gradient-64" cx="11.45" cy="2.46" r="13.53" xlink:href="#radial-gradient"/><radialGradient id="radial-gradient-68" cx="11.45" cy="2.46" r="13.53" xlink:href="#radial-gradient"/><radialGradient id="radial-gradient-69" cx="11.45" cy="2.46" r="13.53" xlink:href="#radial-gradient"/><radialGradient id="radial-gradient-72" cx="11.45" cy="2.46" r="13.53" xlink:href="#radial-gradient"/><radialGradient id="radial-gradient-75" cx="11.45" cy="2.46" r="13.53" xlink:href="#radial-gradient"/><radialGradient id="radial-gradient-78" cx="11.45" cy="2.46" r="13.53" xlink:href="#radial-gradient"/><radialGradient id="radial-gradient-81" cx="11.45" cy="2.46" r="13.53" xlink:href="#radial-gradient"/><radialGradient id="radial-gradient-83" cx="11.45" cy="2.46" r="13.53" xlink:href="#radial-gradient"/><radialGradient id="radial-gradient-84" cx="11.45" cy="2.46" r="13.53" xlink:href="#radial-gradient"/><radialGradient id="radial-gradient-88" cx="11.45" cy="2.46" r="13.53" xlink:href="#radial-gradient"/><radialGradient id="radial-gradient-90" cx="11.45" cy="2.46" r="13.53" xlink:href="#radial-gradient"/><radialGradient id="radial-gradient-91" cx="11.45" cy="2.46" r="13.53" xlink:href="#radial-gradient"/><radialGradient id="radial-gradient-96" cx="11.45" cy="2.46" r="13.53" xlink:href="#radial-gradient"/><radialGradient id="radial-gradient-100" cx="11.45" cy="2.46" r="13.53" xlink:href="#radial-gradient"/></defs><path class="cls-1" d="M27.27,11.84a.63.63,0,1,0,.63.63A.63.63,0,0,0,27.27,11.84Z"/><path class="cls-2" d="M19,12.47a.63.63,0,1,0-.63.63A.63.63,0,0,0,19,12.47Z"/><path class="cls-3" d="M9.51,13.1a.63.63,0,1,0-.63-.63A.63.63,0,0,0,9.51,13.1Z"/><path class="cls-4" d="M20.5,12.47a.63.63,0,1,0-.63.63A.63.63,0,0,0,20.5,12.47Z"/><path class="cls-5" d="M17.69,17.1a.64.64,0,0,0,.89,0,.63.63,0,0,0,.18-.45.62.62,0,0,0-.18-.44.63.63,0,0,0-.45-.18.61.61,0,0,0-.62.62A.63.63,0,0,0,17.69,17.1Z"/><path class="cls-6" d="M14,19a.63.63,0,0,0,.63-.63.63.63,0,0,0-1.26,0A.63.63,0,0,0,14,19Z"/><path class="cls-6" d="M9.76,17.28a.62.62,0,0,0,.63-.63.62.62,0,0,0-.18-.44A.63.63,0,0,0,9.76,16a.62.62,0,0,0-.44.18.62.62,0,0,0,0,.89A.62.62,0,0,0,9.76,17.28Z"/><path class="cls-7" d="M8.66,12.47A.63.63,0,1,0,8,13.1.63.63,0,0,0,8.66,12.47Z"/><path class="cls-8" d="M10.21,7.84a.62.62,0,0,0-.89,0,.61.61,0,0,0-.19.44.64.64,0,0,0,.19.45.62.62,0,0,0,.44.18.62.62,0,0,0,.63-.63A.6.6,0,0,0,10.21,7.84Z"/><path class="cls-9" d="M14,5.92a.63.63,0,1,0,.63.63A.63.63,0,0,0,14,5.92Z"/><path class="cls-2" d="M18.13,8.91a.62.62,0,0,0,.63-.63.6.6,0,0,0-.18-.44.62.62,0,0,0-.89,0,.6.6,0,0,0-.18.44.63.63,0,0,0,.18.45A.62.62,0,0,0,18.13,8.91Z"/><path class="cls-8" d="M21.35,11.84a.63.63,0,1,0,.63.63A.63.63,0,0,0,21.35,11.84Z"/><path class="cls-10" d="M20.69,15.59a.61.61,0,0,0,.48,0,.6.6,0,0,0,.32-.36.49.49,0,0,0,0-.21.63.63,0,0,0-.41-.59.61.61,0,0,0-.48,0,.63.63,0,0,0-.33.35.85.85,0,0,0,0,.22A.64.64,0,0,0,20.69,15.59Z"/><path class="cls-11" d="M19.67,17.85a.6.6,0,0,0,.43-.22.62.62,0,0,0-.08-.89.63.63,0,0,0-.46-.14.58.58,0,0,0-.42.22.6.6,0,0,0-.15.4.62.62,0,0,0,.68.63Z"/><path class="cls-3" d="M18.19,18.56a.63.63,0,0,0-1.17.32.65.65,0,0,0,.08.31.6.6,0,0,0,.39.29.56.56,0,0,0,.47-.06.62.62,0,0,0,.23-.86Z"/><path class="cls-12" d="M15.34,20.38a.64.64,0,0,0,.52-.62.37.37,0,0,0,0-.11.63.63,0,0,0-1.25.1s0,.08,0,.12A.63.63,0,0,0,15.34,20.38Z"/><path class="cls-6" d="M12.55,20.38a.64.64,0,0,0,.47-.11.63.63,0,0,0,.26-.4.49.49,0,0,0,0-.12.62.62,0,0,0-.52-.61.61.61,0,0,0-.47.1.67.67,0,0,0-.26.41v.11A.63.63,0,0,0,12.55,20.38Z"/><path class="cls-3" d="M10.41,19.48a.59.59,0,0,0,.38-.29.56.56,0,0,0,.09-.31.62.62,0,0,0-.32-.55.64.64,0,0,0-.86.23.72.72,0,0,0-.08.32.63.63,0,0,0,.31.54A.58.58,0,0,0,10.41,19.48Z"/><path class="cls-6" d="M8.69,17.71a.64.64,0,0,0,.22-.49.63.63,0,0,0-.57-.62.63.63,0,0,0-.69.63.6.6,0,0,0,.15.4A.63.63,0,0,0,8.69,17.71Z"/><path class="cls-13" d="M7.62,15a.83.83,0,0,0,0-.22.66.66,0,0,0-.33-.35.61.61,0,0,0-.48,0,.63.63,0,0,0-.41.59.71.71,0,0,0,0,.21.65.65,0,0,0,.33.36.61.61,0,0,0,.48,0A.63.63,0,0,0,7.62,15Z"/><path class="cls-6" d="M6.55,11.84a.63.63,0,1,0,.63.63A.63.63,0,0,0,6.55,11.84Z"/><path class="cls-8" d="M7.59,10.15a.76.76,0,0,0,0-.21.63.63,0,0,0-.89-.57.63.63,0,0,0-.33.35.78.78,0,0,0,0,.22.63.63,0,0,0,1.22.21Z"/><path class="cls-14" d="M8.76,8.12a.63.63,0,0,0,.15-.41.63.63,0,0,0-1.11-.4.59.59,0,0,0-.15.4.6.6,0,0,0,.23.48.63.63,0,0,0,.46.15A.69.69,0,0,0,8.76,8.12Z"/><path class="cls-9" d="M9.7,6.37a.65.65,0,0,0,.39.3.6.6,0,0,0,.47-.07.62.62,0,0,0,.32-.54.56.56,0,0,0-.09-.31.63.63,0,0,0-1.17.31A.65.65,0,0,0,9.7,6.37Z"/><path class="cls-15" d="M13,4.67a.58.58,0,0,0-.46-.11.62.62,0,0,0-.52.62v.11a.67.67,0,0,0,.26.41.66.66,0,0,0,.47.1.62.62,0,0,0,.52-.62.41.41,0,0,0,0-.11A.61.61,0,0,0,13,4.67Z"/><path class="cls-16" d="M15.34,4.56a.62.62,0,0,0-.47.11.64.64,0,0,0-.26.4s0,.07,0,.11a.62.62,0,0,0,.52.62.67.67,0,0,0,.48-.1.65.65,0,0,0,.25-.41.41.41,0,0,0,0-.11A.62.62,0,0,0,15.34,4.56Z"/><path class="cls-9" d="M17.1,5.75a.65.65,0,0,0-.08.31.62.62,0,0,0,1.17.31.56.56,0,0,0,.09-.31A.62.62,0,0,0,18,5.52.63.63,0,0,0,17.1,5.75Z"/><path class="cls-17" d="M19.56,8.34A.64.64,0,0,0,20,8.19a.61.61,0,0,0,.08-.88.64.64,0,0,0-.89-.08.64.64,0,0,0-.22.48.63.63,0,0,0,.15.41A.67.67,0,0,0,19.56,8.34Z"/><path class="cls-8" d="M20.27,9.94a.78.78,0,0,0,0,.21.63.63,0,0,0,1.22-.21.54.54,0,0,0,0-.22.58.58,0,0,0-.32-.35.61.61,0,0,0-.48,0A.63.63,0,0,0,20.27,9.94Z"/><path class="cls-6" d="M22.83,11.84a.63.63,0,1,0,.63.63A.63.63,0,0,0,22.83,11.84Z"/><path class="cls-18" d="M23.27,14.32a.5.5,0,0,0,0-.12A.63.63,0,0,0,22,14.08a.49.49,0,0,0,0,.12.63.63,0,0,0,1.24.12Z"/><path class="cls-11" d="M22.73,16.11a.52.52,0,0,0,.05-.24.63.63,0,0,0-.39-.59.66.66,0,0,0-.48,0,.68.68,0,0,0-.34.35.6.6,0,0,0-.05.24.64.64,0,0,0,.39.58A.63.63,0,0,0,22.73,16.11Z"/><path class="cls-19" d="M21,17.92a.63.63,0,0,0,.88-.17.68.68,0,0,0,.1-.35.62.62,0,0,0-.28-.52.63.63,0,0,0-.87.17.66.66,0,0,0-.11.35A.63.63,0,0,0,21,17.92Z"/><path class="cls-19" d="M20.86,18.75a.64.64,0,0,0-1.08-.45.63.63,0,0,0-.18.45.6.6,0,0,0,.18.44.62.62,0,0,0,.89,0A.61.61,0,0,0,20.86,18.75Z"/><path class="cls-8" d="M19.23,20.37a.6.6,0,0,0,.28-.52.74.74,0,0,0-.1-.35.69.69,0,0,0-.4-.27.67.67,0,0,0-.48.1.64.64,0,0,0-.28.52.61.61,0,0,0,.11.35.6.6,0,0,0,.4.27A.61.61,0,0,0,19.23,20.37Z"/><path class="cls-6" d="M17.11,20.09a.63.63,0,0,0-.39.58.47.47,0,0,0,.05.24A.63.63,0,0,0,18,20.67a.69.69,0,0,0-.05-.24A.63.63,0,0,0,17.11,20.09Z"/><path class="cls-13" d="M15.56,20.56a.64.64,0,0,0-.51.62s0,.08,0,.12a.63.63,0,0,0,.74.49.61.61,0,0,0,.51-.61.49.49,0,0,0,0-.12A.63.63,0,0,0,15.56,20.56Z"/><path class="cls-19" d="M14,22a.63.63,0,1,0-.63-.63A.63.63,0,0,0,14,22Z"/><path class="cls-20" d="M12.83,21.3a.5.5,0,0,0,0-.12.63.63,0,0,0-1.25-.12.49.49,0,0,0,0,.12.61.61,0,0,0,.5.61.62.62,0,0,0,.48-.09A.61.61,0,0,0,12.83,21.3Z"/><path class="cls-6" d="M10.79,21.25a.57.57,0,0,0,.34-.34.6.6,0,0,0,0-.24.63.63,0,0,0-.39-.58.66.66,0,0,0-.48,0,.63.63,0,0,0-.34.34.69.69,0,0,0-.05.24.61.61,0,0,0,.39.58A.57.57,0,0,0,10.79,21.25Z"/><path class="cls-6" d="M9.37,19.33a.67.67,0,0,0-.48-.1.69.69,0,0,0-.4.27.64.64,0,0,0-.1.35.6.6,0,0,0,.28.52.62.62,0,0,0,.87-.17.6.6,0,0,0,.1-.35A.63.63,0,0,0,9.37,19.33Z"/><path class="cls-21" d="M8.11,18.3a.64.64,0,0,0-.89,0,.67.67,0,0,0-.18.45.65.65,0,0,0,.18.44.62.62,0,0,0,.89,0,.61.61,0,0,0,.19-.44A.64.64,0,0,0,8.11,18.3Z"/><path class="cls-6" d="M6.92,17.92a.62.62,0,0,0,.27-.52.64.64,0,0,0-.1-.35.63.63,0,0,0-.87-.17.62.62,0,0,0-.28.52.6.6,0,0,0,.1.35A.63.63,0,0,0,6.92,17.92Z"/><path class="cls-22" d="M6,16.45a.64.64,0,0,0,.38-.58.61.61,0,0,0,0-.24.63.63,0,0,0-.83-.35.64.64,0,0,0-.38.59.67.67,0,0,0,0,.24A.64.64,0,0,0,6,16.45Z"/><path class="cls-7" d="M5.36,14.82a.63.63,0,0,0,.51-.62s0-.08,0-.12a.64.64,0,0,0-.74-.5.63.63,0,0,0-.51.62.49.49,0,0,0,0,.12A.64.64,0,0,0,5.36,14.82Z"/><path class="cls-23" d="M5.07,13.1a.63.63,0,1,0-.63-.63A.63.63,0,0,0,5.07,13.1Z"/><path class="cls-24" d="M4.62,10.61a.57.57,0,0,0,0,.13.62.62,0,0,0,.51.61.63.63,0,0,0,.74-.49s0-.08,0-.12a.63.63,0,0,0-1.25-.13Z"/><path class="cls-23" d="M5.5,8.49a.63.63,0,0,0-.34.34.67.67,0,0,0,0,.24.62.62,0,0,0,.38.58.6.6,0,0,0,.49,0,.63.63,0,0,0,.34-.34.67.67,0,0,0,0-.24A.62.62,0,0,0,6,8.49.69.69,0,0,0,5.5,8.49Z"/><path class="cls-21" d="M6.92,7A.64.64,0,0,0,6,7.19a.59.59,0,0,0-.1.34.63.63,0,0,0,1.15.35.59.59,0,0,0,.1-.34A.64.64,0,0,0,6.92,7Z"/><path class="cls-25" d="M7,6.19a.63.63,0,0,0,.18.44.64.64,0,0,0,.45.19.65.65,0,0,0,.63-.63.64.64,0,0,0-1.08-.45A.67.67,0,0,0,7,6.19Z"/><path class="cls-8" d="M8.67,4.56a.62.62,0,0,0-.28.53.59.59,0,0,0,.1.34.65.65,0,0,0,.4.27.62.62,0,0,0,.48-.09.64.64,0,0,0,.27-.52.6.6,0,0,0-.1-.35.62.62,0,0,0-.4-.27A.6.6,0,0,0,8.67,4.56Z"/><path class="cls-26" d="M10.31,4.85a.66.66,0,0,0,.48,0,.63.63,0,0,0,.39-.59.69.69,0,0,0,0-.24.63.63,0,0,0-1.21.24A.6.6,0,0,0,10,4.5.62.62,0,0,0,10.31,4.85Z"/><path class="cls-8" d="M11.87,4.28a.6.6,0,0,0,.47.1.64.64,0,0,0,.51-.62.5.5,0,0,0,0-.12.58.58,0,0,0-.26-.4.63.63,0,0,0-.48-.1.63.63,0,0,0-.5.62.49.49,0,0,0,0,.12A.6.6,0,0,0,11.87,4.28Z"/><path class="cls-6" d="M14,3a.63.63,0,1,0,.63.63A.63.63,0,0,0,14,3Z"/><path class="cls-27" d="M15.06,3.64s0,.08,0,.12a.63.63,0,0,0,1.25.12.49.49,0,0,0,0-.12.63.63,0,0,0-1.25-.12Z"/><path class="cls-16" d="M16.77,4a.52.52,0,0,0-.05.24.63.63,0,0,0,.39.59.63.63,0,0,0,.82-.35A.6.6,0,0,0,18,4.26a.64.64,0,0,0-.39-.58A.63.63,0,0,0,16.77,4Z"/><path class="cls-28" d="M18.53,5.61a.64.64,0,0,0,.88-.18.67.67,0,0,0,.1-.34.62.62,0,0,0-.28-.53.61.61,0,0,0-.47-.09.6.6,0,0,0-.4.27.61.61,0,0,0-.11.35A.65.65,0,0,0,18.53,5.61Z"/><path class="cls-25" d="M19.78,6.63a.64.64,0,0,0,.45.19.61.61,0,0,0,.44-.19.6.6,0,0,0,.19-.44.64.64,0,0,0-1.08-.45.63.63,0,0,0-.18.45A.59.59,0,0,0,19.78,6.63Z"/><path class="cls-9" d="M21,7a.64.64,0,0,0-.28.53.6.6,0,0,0,.11.34A.63.63,0,0,0,22,7.53a.67.67,0,0,0-.1-.34A.64.64,0,0,0,21,7Z"/><path class="cls-8" d="M22.39,8.49a.66.66,0,0,0-.48,0,.63.63,0,0,0-.39.58.69.69,0,0,0,.05.24.63.63,0,0,0,.34.34.57.57,0,0,0,.48,0,.62.62,0,0,0,.39-.58.52.52,0,0,0-.05-.24A.57.57,0,0,0,22.39,8.49Z"/><path class="cls-29" d="M22,10.74a.49.49,0,0,0,0,.12.63.63,0,0,0,1.25-.12.59.59,0,0,0,0-.13.61.61,0,0,0-.73-.49A.63.63,0,0,0,22,10.74Z"/><path class="cls-2" d="M24.31,11.84a.63.63,0,1,0,.63.63A.63.63,0,0,0,24.31,11.84Z"/><path class="cls-30" d="M24.21,14a.6.6,0,0,0-.47.08.65.65,0,0,0-.27.4.59.59,0,0,0,0,.13.63.63,0,0,0,.5.62.68.68,0,0,0,.48-.09.63.63,0,0,0,.27-.4.53.53,0,0,0,0-.13A.63.63,0,0,0,24.21,14Z"/><path class="cls-31" d="M23.67,16.11a.63.63,0,0,0-.83.32.54.54,0,0,0-.06.25.63.63,0,0,0,1.21.26.75.75,0,0,0,.05-.26A.61.61,0,0,0,23.67,16.11Z"/><path class="cls-19" d="M22.7,18.05a.63.63,0,0,0-.88.14.61.61,0,0,0-.12.37.64.64,0,0,0,.26.51.61.61,0,0,0,.47.11.68.68,0,0,0,.41-.25.63.63,0,0,0,.12-.37A.64.64,0,0,0,22.7,18.05Z"/><path class="cls-24" d="M20.46,19.7a.64.64,0,0,0-.21.47.67.67,0,0,0,.16.42.62.62,0,0,0,.44.2.57.57,0,0,0,.45-.16.61.61,0,0,0,.21-.46.63.63,0,0,0-1.05-.47Z"/><path class="cls-19" d="M19.29,20.83a.63.63,0,0,0-.79.61.65.65,0,0,0,.08.31.63.63,0,0,0,.86.24.65.65,0,0,0,.32-.55.56.56,0,0,0-.09-.31A.63.63,0,0,0,19.29,20.83Z"/><path class="cls-32" d="M17,21.72a.64.64,0,0,0-.44.6.69.69,0,0,0,0,.2.63.63,0,0,0,1.2-.39A.64.64,0,0,0,17,21.72Z"/><path class="cls-33" d="M15,22.15a.62.62,0,0,0-.57.62.2.2,0,0,0,0,.07.63.63,0,0,0,.69.56.64.64,0,0,0,.56-.63v-.06A.63.63,0,0,0,15,22.15Z"/><path class="cls-8" d="M13.49,22.84v-.07a.62.62,0,0,0-.56-.62.64.64,0,0,0-.46.13.66.66,0,0,0-.23.43v.06a.62.62,0,0,0,1,.49A.66.66,0,0,0,13.49,22.84Z"/><path class="cls-33" d="M10.94,21.72a.64.64,0,0,0-.79.41.63.63,0,0,0,.4.79.63.63,0,0,0,.8-.4.69.69,0,0,0,0-.2A.64.64,0,0,0,10.94,21.72Z"/><path class="cls-34" d="M9.08,20.9a.6.6,0,0,0-.47-.07A.64.64,0,0,0,8.45,22a.63.63,0,0,0,.86-.24.56.56,0,0,0,.09-.31A.62.62,0,0,0,9.08,20.9Z"/><path class="cls-7" d="M6.55,19.75a.63.63,0,0,0-.16.42.63.63,0,0,0,.66.62.58.58,0,0,0,.43-.2.63.63,0,0,0,.17-.42.64.64,0,0,0-.21-.47A.63.63,0,0,0,6.55,19.75Z"/><path class="cls-8" d="M5.47,19.18a.61.61,0,0,0,.47-.11.64.64,0,0,0,.26-.51.61.61,0,0,0-.12-.37.64.64,0,0,0-.88-.14.64.64,0,0,0-.26.51.63.63,0,0,0,.12.37A.65.65,0,0,0,5.47,19.18Z"/><path class="cls-35" d="M5.11,16.68a.53.53,0,0,0-.05-.25.63.63,0,0,0-.83-.32.61.61,0,0,0-.37.57.58.58,0,0,0,.05.26.64.64,0,0,0,.83.32A.63.63,0,0,0,5.11,16.68Z"/><path class="cls-34" d="M4.44,14.62a.57.57,0,0,0,0-.13A.62.62,0,0,0,3.68,14a.63.63,0,0,0-.49.61.53.53,0,0,0,0,.13.63.63,0,0,0,.27.4.67.67,0,0,0,.48.09A.63.63,0,0,0,4.44,14.62Z"/><path class="cls-7" d="M4.22,12.47a.63.63,0,1,0-.63.63A.63.63,0,0,0,4.22,12.47Z"/><path class="cls-36" d="M3.68,10.93a.64.64,0,0,0,.75-.48.66.66,0,0,0,0-.14.63.63,0,0,0-1.24-.13.66.66,0,0,0,0,.14A.63.63,0,0,0,3.68,10.93Z"/><path class="cls-36" d="M4.23,8.83a.63.63,0,0,0,.83-.32.58.58,0,0,0,.05-.26.62.62,0,0,0-.37-.57.61.61,0,0,0-.48,0A.63.63,0,0,0,3.91,8a.56.56,0,0,0-.05.25A.63.63,0,0,0,4.23,8.83Z"/><path class="cls-17" d="M5.2,6.89a.64.64,0,0,0,.88-.14.63.63,0,0,0,.12-.37.64.64,0,0,0-.26-.51.61.61,0,0,0-.47-.11A.58.58,0,0,0,5.06,6a.63.63,0,0,0-.12.37A.64.64,0,0,0,5.2,6.89Z"/><path class="cls-37" d="M7.44,5.24a.64.64,0,0,0,.21-.47.65.65,0,0,0-.6-.63.63.63,0,0,0-.66.63.65.65,0,0,0,.16.42A.63.63,0,0,0,7.44,5.24Z"/><path class="cls-7" d="M9.08,4a.63.63,0,0,0-.15-1.15A.67.67,0,0,0,8.45,3a.63.63,0,0,0-.31.55.65.65,0,0,0,.08.31A.64.64,0,0,0,9.08,4Z"/><path class="cls-38" d="M10.55,2a.62.62,0,0,0-.43.6.62.62,0,0,0,.82.59.62.62,0,0,0,.44-.59.64.64,0,0,0,0-.2A.63.63,0,0,0,10.55,2Z"/><path class="cls-39" d="M12.93,2.79a.62.62,0,0,0,.56-.62V2.1a.61.61,0,0,0-.23-.42.59.59,0,0,0-.46-.14.62.62,0,0,0-.56.63v.06A.63.63,0,0,0,12.93,2.79Z"/><path class="cls-14" d="M14.41,2.1a.15.15,0,0,0,0,.07.62.62,0,0,0,.57.62.63.63,0,0,0,.69-.56V2.17a.63.63,0,0,0-1.25-.07Z"/><path class="cls-38" d="M17,3.21a.62.62,0,0,0,.82-.59.61.61,0,0,0-.44-.6.62.62,0,0,0-.79.4.64.64,0,0,0,0,.2A.62.62,0,0,0,17,3.21Z"/><path class="cls-8" d="M18.81,4a.63.63,0,0,0,.86-.23.56.56,0,0,0,.09-.31A.62.62,0,0,0,19.44,3a.64.64,0,0,0-.86.23.72.72,0,0,0-.08.32A.63.63,0,0,0,18.81,4Z"/><path class="cls-40" d="M21.35,5.19a.63.63,0,0,0-.05-.89.61.61,0,0,0-.45-.16.63.63,0,0,0-.44.21.63.63,0,0,0-.16.42.64.64,0,0,0,.21.47A.63.63,0,0,0,21.35,5.19Z"/><path class="cls-17" d="M22.43,5.76a.61.61,0,0,0-.47.11.64.64,0,0,0-.26.51.63.63,0,0,0,.12.37.64.64,0,0,0,.88.14A.64.64,0,0,0,23,6.38.63.63,0,0,0,22.84,6,.6.6,0,0,0,22.43,5.76Z"/><path class="cls-41" d="M22.78,8.25a.58.58,0,0,0,.06.26A.63.63,0,0,0,24,8.25.74.74,0,0,0,24,8a.63.63,0,0,0-.35-.33.61.61,0,0,0-.48,0A.63.63,0,0,0,22.78,8.25Z"/><path class="cls-42" d="M23.45,10.31a.68.68,0,0,0,0,.14.63.63,0,0,0,1.24-.13.66.66,0,0,0,0-.14.64.64,0,0,0-.27-.39.63.63,0,0,0-1,.52Z"/><path class="cls-8" d="M25.79,11.84a.63.63,0,1,0,.63.63A.63.63,0,0,0,25.79,11.84Z"/><path class="cls-29" d="M21.88,20.4a.6.6,0,0,0-.19.44.64.64,0,0,0,1.08.45.67.67,0,0,0,.18-.45.63.63,0,0,0-1.07-.44Z"/><path class="cls-20" d="M14,23.68a.63.63,0,0,0-.63.63.63.63,0,1,0,1.26,0A.63.63,0,0,0,14,23.68Z"/><path class="cls-24" d="M5.13,20.4a.59.59,0,0,0-.18.44.63.63,0,0,0,.18.45.64.64,0,0,0,1.08-.45A.6.6,0,0,0,6,20.4.62.62,0,0,0,5.13,20.4Z"/><path class="cls-43" d="M2.11,11.84a.63.63,0,1,0,.63.63A.63.63,0,0,0,2.11,11.84Z"/><path class="cls-7" d="M5.58,4.73A.63.63,0,0,0,6,3.65a.64.64,0,0,0-.89,0A.63.63,0,0,0,5,4.1a.62.62,0,0,0,.18.44A.64.64,0,0,0,5.58,4.73Z"/><path class="cls-39" d="M14,1.26a.63.63,0,1,0-.63-.63A.63.63,0,0,0,14,1.26Z"/><path class="cls-18" d="M22.32,4.73a.64.64,0,0,0,.45-.19.64.64,0,0,0,0-.89.64.64,0,0,0-1.08.45.63.63,0,0,0,.19.44A.61.61,0,0,0,22.32,4.73Z"/><path class="cls-44" d="M.63,11.84a.63.63,0,1,0,.63.63A.63.63,0,0,0,.63,11.84Z"/><path class="cls-45" d="M12.64,11.41V10.23h3.65v-1H12.91a5.91,5.91,0,0,0-.6,0,.85.85,0,0,0-.65.6,1.54,1.54,0,0,0-.05.48v5.4h1V13.31h0v-.16h0v-.44h1.74a1.19,1.19,0,0,0,.53-.06L15,12.6a.9.9,0,0,0,.3-.28,1,1,0,0,0,.15-.4v-.2H12.64v-.31Z"/><path class="cls-45" d="M42.1,13.2c0-1.85,1-2.78,3-2.78h.2v1.25h-.53a1.42,1.42,0,0,0-1.38,1.51v3H42.1Z"/><path class="cls-45" d="M61.46,10.45a1.17,1.17,0,0,0-.85.37,1.15,1.15,0,0,0-.24.4.86.86,0,0,0-.06.23c0,.1,0,.21,0,.31v2a1.13,1.13,0,0,1-2.26,0V10.46H56.7v3.32a2.47,2.47,0,0,0,4.94,0V10.46h-.18Z"/><path class="cls-45" d="M54.91,8.79a.64.64,0,0,0-.2,0V10h1.23s0-.08,0-.13A1,1,0,0,0,54.91,8.79Z"/><path class="cls-45" d="M56,11.49a1.09,1.09,0,0,0,0-.26s0,0,0-.06a1.05,1.05,0,0,0-.17-.31,1,1,0,0,0-.57-.38,1.15,1.15,0,0,0-.26,0l-.2,0v5.69H56V11.49Z"/><path class="cls-45" d="M32.84,11.27V9.91H37V8.75h-3.9a4,4,0,0,0-.69,0,1,1,0,0,0-.75.68,1.52,1.52,0,0,0-.05.56v6.23h1.19V13.45h0v-.18h0v-.5h2a1.48,1.48,0,0,0,.63-.08l.1,0a1,1,0,0,0,.34-.33,1.07,1.07,0,0,0,.17-.46.49.49,0,0,0,0-.12.34.34,0,0,0,0-.1H32.84v-.36Z"/><path class="cls-45" d="M54.1,12.84a2.47,2.47,0,0,0-4.27-1.6,2.47,2.47,0,0,0-4.27,1.6h0v3.32h1.33V12.84A1.15,1.15,0,0,1,48,11.72a1.14,1.14,0,0,1,1.13,1.13h0v3.31H50.5V12.85h0a1.14,1.14,0,0,1,2.27,0h0V15a1.29,1.29,0,0,0,1.28,1.21h.05V12.84Z"/><path class="cls-45" d="M70.86,12.84a2.46,2.46,0,0,0-4.26-1.6,2.5,2.5,0,0,0-1.81-.78,2.46,2.46,0,0,0-2.46,2.38h0v3.32h1.34V12.84a1.14,1.14,0,0,1,2.27,0h0v3.31h1.33V12.85h0a1.14,1.14,0,0,1,2.27,0h0V15a1.3,1.3,0,0,0,1.29,1.21h.05V12.84Z"/><path class="cls-45" d="M40.87,13.75a.7.7,0,0,0,.61-.36.61.61,0,0,0,.08-.3.24.24,0,0,0,0-.12,2.15,2.15,0,0,0,0-.45,2.37,2.37,0,0,0-.09-.36,2.53,2.53,0,0,0-.33-.63,2.63,2.63,0,0,0-.48-.52,2.34,2.34,0,0,0-.61-.36,2.42,2.42,0,0,0-.7-.19,1.62,1.62,0,0,0-.31,0,2.57,2.57,0,0,0-2.56,2.33v1a2.52,2.52,0,0,0,.21.87,2.6,2.6,0,0,0,4.78,0H40a1.19,1.19,0,0,1-1,.53,1.21,1.21,0,0,1-1.2-1.2c0-.06,0-.13,0-.2ZM39,11.56a1.14,1.14,0,0,1,1.14,1.13c0,.05,0,.09,0,.13H37.84s0-.08,0-.13A1.16,1.16,0,0,1,39,11.56Z"/></svg>