<svg id="Layer_1" data-name="Layer 1" xmlns="http://www.w3.org/2000/svg" xmlns:xlink="http://www.w3.org/1999/xlink" viewBox="0 0 70.87 13.54"><defs><style>.cls-1{fill:url(#linear-gradient);}.cls-2{fill:url(#linear-gradient-2);}.cls-3{fill:url(#linear-gradient-3);}.cls-4{fill:url(#linear-gradient-4);}.cls-5{fill:url(#linear-gradient-5);}.cls-6{fill:url(#linear-gradient-6);}.cls-7{fill:url(#linear-gradient-7);}.cls-8{fill:url(#linear-gradient-8);}</style><linearGradient id="linear-gradient" x1="18.9" y1="8.22" x2="24.6" y2="8.22" gradientUnits="userSpaceOnUse"><stop offset="1" stop-color="#fff"/><stop offset="1"/></linearGradient><linearGradient id="linear-gradient-2" x1="45.27" y1="8.24" x2="54.19" y2="8.24" xlink:href="#linear-gradient"/><linearGradient id="linear-gradient-3" x1="41.67" y1="1.15" x2="43.91" y2="1.15" xlink:href="#linear-gradient"/><linearGradient id="linear-gradient-4" x1="41.67" y1="8.24" x2="43.92" y2="8.24" xlink:href="#linear-gradient"/><linearGradient id="linear-gradient-5" x1="0" y1="6.77" x2="9.75" y2="6.77" xlink:href="#linear-gradient"/><linearGradient id="linear-gradient-6" x1="25.14" y1="8.25" x2="40.58" y2="8.25" xlink:href="#linear-gradient"/><linearGradient id="linear-gradient-7" x1="55.43" y1="8.25" x2="70.87" y2="8.25" xlink:href="#linear-gradient"/><linearGradient id="linear-gradient-8" x1="8.65" y1="8.26" x2="17.92" y2="8.26" xlink:href="#linear-gradient"/></defs><path class="cls-1" d="M18.9,8.06C19,4.7,20.76,3,24.23,3h.37V5.28h-1A2.59,2.59,0,0,0,21.14,8V13.4H18.9Z"/><path class="cls-2" d="M53.87,3.08a2,2,0,0,0-.84.18,2,2,0,0,0-.69.49,2.12,2.12,0,0,0-.44.72,2,2,0,0,0-.1.42,3.54,3.54,0,0,0,0,.56V9.11a2.05,2.05,0,0,1-4.1,0v-6H45.27v6a4.46,4.46,0,0,0,8.92,0v-6Z"/><path class="cls-3" d="M42,.09a1.5,1.5,0,0,0-.37,0V2.2h2.22a1.94,1.94,0,0,0,0-.24A1.87,1.87,0,0,0,42,.09Z"/><path class="cls-4" d="M43.92,5a2.42,2.42,0,0,0-.06-.47.36.36,0,0,0,0-.1,2,2,0,0,0-.3-.56,1.82,1.82,0,0,0-1-.69A1.76,1.76,0,0,0,42,3.08a1.5,1.5,0,0,0-.37,0V13.4h2.25V5Z"/><path class="cls-5" d="M2.15,4.56V2.11h7.6V0H6C4.92,0,3.81,0,2.7,0A8.53,8.53,0,0,0,1.46,0,1.79,1.79,0,0,0,.1,1.28a3.13,3.13,0,0,0-.1,1V13.54H2.15v-5h0V8.18h0V7.27H4.23c.2,0,.4,0,.61,0s.42,0,.64,0a2.62,2.62,0,0,1,.28,0,2.65,2.65,0,0,0,1.12-.15L7.07,7a2,2,0,0,0,.63-.59A2.08,2.08,0,0,0,8,5.62c0-.07,0-.15,0-.22a1.28,1.28,0,0,0,0-.19H2.15V4.56Z"/><path class="cls-6" d="M40.57,7.39a4.45,4.45,0,0,0-7.71-2.88,4.46,4.46,0,0,0-7.72,2.88h0v6h2.41v-6a2.05,2.05,0,0,1,4.1,0h0v6h2.41v-6h0a2,2,0,0,1,4.09,0h0v3.84a2.33,2.33,0,0,0,2.33,2.18h.09v-6Z"/><path class="cls-7" d="M70.86,7.39a4.45,4.45,0,0,0-7.71-2.88,4.46,4.46,0,0,0-7.72,2.88h0v6h2.41v-6a2.05,2.05,0,0,1,4.1,0h0v6h2.41v-6h0a2.05,2.05,0,0,1,4.1,0h0v3.84a2.33,2.33,0,0,0,2.33,2.18h.09v-6Z"/><path class="cls-8" d="M16.66,9.05a1.27,1.27,0,0,0,1.11-.65,1.29,1.29,0,0,0,.15-.54,1.76,1.76,0,0,0,0-.23,4.28,4.28,0,0,0-.07-.81A4.57,4.57,0,0,0,17.09,5a4.8,4.8,0,0,0-.87-.93,4.94,4.94,0,0,0-1.1-.66,4.35,4.35,0,0,0-1.27-.34,3.52,3.52,0,0,0-.56,0A4.65,4.65,0,0,0,8.67,7.27l0,.81v1A4.81,4.81,0,0,0,9,10.62a4.7,4.7,0,0,0,8.64,0H15.13a2.16,2.16,0,0,1-3.58,0,2.19,2.19,0,0,1-.37-1.21c0-.12,0-.24,0-.36Zm-3.37-4a2,2,0,0,1,2.05,2.05,1.62,1.62,0,0,1,0,.22H11.2a1.64,1.64,0,0,1,0-.22A2.1,2.1,0,0,1,13.29,5.09Z"/></svg>